<svg width="25" height="45" viewBox="0 0 25 45" fill="none" xmlns="http://www.w3.org/2000/svg">
<path d="M8.80217 44.9997H2.20088C0.987401 44.9997 0 44.0126 0 42.7992C0 41.5857 0.987401 40.5986 2.20088 40.5986H8.80217C10.0156 40.5986 11.0027 41.5857 11.0027 42.7992C11.0027 44.0126 10.0156 44.9997 8.80217 44.9997ZM2.20088 42.0654C1.79616 42.0654 1.46714 42.3951 1.46714 42.7992C1.46714 43.2032 1.79616 43.5329 2.20088 43.5329H8.80217C9.20689 43.5329 9.53591 43.2032 9.53591 42.7992C9.53591 42.3951 9.20689 42.0654 8.80217 42.0654H2.20088Z" fill="#1FC66C"/>
<path d="M8.80217 42.0653H2.20088C0.987401 42.0653 0 41.0782 0 39.8648C0 38.6513 0.987401 37.6646 2.20088 37.6646H8.80217C10.0156 37.6646 11.0027 38.6513 11.0027 39.8648C11.0027 41.0782 10.0156 42.0653 8.80217 42.0653ZM2.20088 39.1317C1.79616 39.1317 1.46714 39.4607 1.46714 39.8648C1.46714 40.2695 1.79616 40.5985 2.20088 40.5985H8.80217C9.20689 40.5985 9.53591 40.2695 9.53591 39.8648C9.53591 39.4607 9.20689 39.1317 8.80217 39.1317H2.20088Z" fill="#1FC66C"/>
<path d="M9.53654 39.1315H1.46778C1.06272 39.1315 0.734375 38.8028 0.734375 38.3978V21.5269C0.734375 21.1218 1.06272 20.7935 1.46778 20.7935H9.53654C9.94159 20.7935 10.2699 21.1218 10.2699 21.5269V38.3978C10.2699 38.8028 9.94159 39.1315 9.53654 39.1315ZM2.20151 37.6644H8.8028V22.2603H2.20151V37.6644Z" fill="#1FC66C"/>
<path d="M9.53651 22.2606H1.46774C1.20836 22.2606 0.968154 22.1237 0.836276 21.901C0.704735 21.6776 0.700025 21.4014 0.825174 21.174L2.4363 18.24C2.56515 18.0055 2.81175 17.8599 3.07954 17.8599H8.14507C8.42833 17.8599 8.68637 18.023 8.80782 18.2787L10.1993 21.2126C10.3069 21.4401 10.2908 21.7065 10.1569 21.9195C10.0216 22.1318 9.78782 22.2606 9.53651 22.2606ZM2.70746 20.7938H8.37686L7.68114 19.3267H3.51286L2.70746 20.7938Z" fill="#1FC66C"/>
<path d="M8.06907 19.3264H2.93424C2.52918 19.3264 2.20117 18.9977 2.20117 18.5926V14.1919C2.20117 13.7865 2.52918 13.4585 2.93424 13.4585H8.06907C8.47412 13.4585 8.80247 13.7865 8.80247 14.1919V18.5926C8.80247 18.9977 8.47412 19.3264 8.06907 19.3264ZM3.66798 17.8596H7.33566V14.9253H3.66798V17.8596Z" fill="#1FC66C"/>
<path d="M8.06907 14.9257H2.93424C2.52918 14.9257 2.20117 14.5974 2.20117 14.1923V9.98604C2.20117 8.70932 2.36972 7.43831 2.70211 6.20902L4.11071 1.00355C4.27118 0.410772 4.78658 0.0074013 5.39316 0H5.41065C6.01016 0 6.52657 0.388232 6.70016 0.970917L8.20532 6.04148C8.60196 7.3754 8.80247 8.76012 8.80247 10.1563V14.1923C8.80247 14.5974 8.47412 14.9257 8.06907 14.9257ZM3.66798 13.4589H7.33566V10.1559C7.33566 8.90141 7.155 7.65732 6.79907 6.45898L5.41536 1.79852L4.11878 6.59221C3.81937 7.69635 3.66798 8.8385 3.66798 9.98604V13.4589Z" fill="#1FC66C"/>
<path d="M7.33692 32.53C6.93186 32.53 6.60352 32.2017 6.60352 31.7966V26.6618C6.60352 26.2567 6.93186 25.9287 7.33692 25.9287C7.74163 25.9287 8.07032 26.2567 8.07032 26.6618V31.7966C8.07032 32.2017 7.74163 32.53 7.33692 32.53Z" fill="#1FC66C"/>
<path d="M7.33692 36.1976C6.93186 36.1976 6.60352 35.8693 6.60352 35.4642V33.9967C6.60352 33.5917 6.93186 33.2637 7.33692 33.2637C7.74163 33.2637 8.07032 33.5917 8.07032 33.9967V35.4642C8.07032 35.8693 7.74163 36.1976 7.33692 36.1976Z" fill="#1FC66C"/>
<path d="M22.7393 44.9997H16.138C14.9246 44.9997 13.9375 44.0126 13.9375 42.7992C13.9375 41.5857 14.9246 40.5986 16.138 40.5986H22.7393C23.9528 40.5986 24.9402 41.5857 24.9402 42.7992C24.9402 44.0126 23.9528 44.9997 22.7393 44.9997ZM16.138 42.0654C15.7337 42.0654 15.4043 42.3951 15.4043 42.7992C15.4043 43.2032 15.7337 43.5329 16.138 43.5329H22.7393C23.144 43.5329 23.4731 43.2032 23.4731 42.7992C23.4731 42.3951 23.144 42.0654 22.7393 42.0654H16.138Z" fill="#1FC66C"/>
<path d="M22.7393 42.0653H16.138C14.9246 42.0653 13.9375 41.0782 13.9375 39.8648C13.9375 38.6513 14.9246 37.6646 16.138 37.6646H22.7393C23.9528 37.6646 24.9402 38.6513 24.9402 39.8648C24.9402 41.0782 23.9528 42.0653 22.7393 42.0653ZM16.138 39.1317C15.7337 39.1317 15.4043 39.4607 15.4043 39.8648C15.4043 40.2695 15.7337 40.5985 16.138 40.5985H22.7393C23.144 40.5985 23.4731 40.2695 23.4731 39.8648C23.4731 39.4607 23.144 39.1317 22.7393 39.1317H16.138Z" fill="#1FC66C"/>
<path d="M23.474 39.1315H15.4053C15.0002 39.1315 14.6719 38.8028 14.6719 38.3978V21.5269C14.6719 21.1218 15.0002 20.7935 15.4053 20.7935H23.474C23.8791 20.7935 24.2078 21.1218 24.2078 21.5269V38.3978C24.2078 38.8028 23.8791 39.1315 23.474 39.1315ZM16.139 37.6644H22.7403V22.2603H16.139V37.6644Z" fill="#1FC66C"/>
<path d="M23.4719 22.2606H15.4031C15.1437 22.2606 14.9039 22.1237 14.772 21.901C14.6401 21.6776 14.6357 21.4014 14.7606 21.174L16.372 18.24C16.5009 18.0055 16.7471 17.8599 17.0149 17.8599H22.0804C22.364 17.8599 22.6217 18.023 22.7432 18.2787L24.1346 21.2126C24.2426 21.4401 24.2261 21.7065 24.0922 21.9195C23.957 22.1318 23.7235 22.2606 23.4719 22.2606ZM16.6432 20.7938H22.3122L21.6169 19.3267H17.4486L16.6432 20.7938Z" fill="#1FC66C"/>
<path d="M22.0069 19.3264H16.8721C16.467 19.3264 16.1387 18.9977 16.1387 18.5926V14.1919C16.1387 13.7865 16.467 13.4585 16.8721 13.4585H22.0069C22.412 13.4585 22.74 13.7865 22.74 14.1919V18.5926C22.74 18.9977 22.412 19.3264 22.0069 19.3264ZM17.6058 17.8596H21.2732V14.9253H17.6058V17.8596Z" fill="#1FC66C"/>
<path d="M22.0069 14.9257H16.8721C16.467 14.9257 16.1387 14.5974 16.1387 14.1923V9.98604C16.1387 8.70932 16.3076 7.43831 16.6399 6.20902L18.0485 1.00355C18.2087 0.410772 18.7241 0.0074013 19.3307 0H19.3485C19.9477 0 20.4644 0.388232 20.6377 0.970917L22.1428 6.04148C22.5391 7.3754 22.74 8.76012 22.74 10.1563V14.1923C22.74 14.5974 22.412 14.9257 22.0069 14.9257ZM17.6058 13.4589H21.2732V10.1559C21.2732 8.90141 21.0928 7.65732 20.7369 6.45898L19.3529 1.79852L18.0559 6.59221C17.7572 7.69635 17.6058 8.8385 17.6058 9.98604V13.4589Z" fill="#1FC66C"/>
<path d="M21.2728 32.53C20.8677 32.53 20.5391 32.2017 20.5391 31.7966V26.6618C20.5391 26.2567 20.8677 25.9287 21.2728 25.9287C21.6778 25.9287 22.0065 26.2567 22.0065 26.6618V31.7966C22.0065 32.2017 21.6778 32.53 21.2728 32.53Z" fill="#1FC66C"/>
<path d="M21.2728 36.1976C20.8677 36.1976 20.5391 35.8693 20.5391 35.4642V33.9967C20.5391 33.5917 20.8677 33.2637 21.2728 33.2637C21.6778 33.2637 22.0065 33.5917 22.0065 33.9967V35.4642C22.0065 35.8693 21.6778 36.1976 21.2728 36.1976Z" fill="#1FC66C"/>
</svg>
