<svg width="20" height="20" viewBox="0 0 20 20" fill="none" xmlns="http://www.w3.org/2000/svg">
<path d="M19.6875 4.59819C19.4791 4.38995 19.2262 4.28574 18.9287 4.28574H14.2856C13.8394 4.28574 13.363 4.43453 12.8571 4.73216V1.07156C12.8571 0.773845 12.7531 0.520691 12.5446 0.312532C12.3362 0.104216 12.0834 0 11.7856 0H7.1429C6.84526 0 6.51784 0.0743901 6.16074 0.223131C5.8036 0.371911 5.5209 0.550557 5.31246 0.758913L0.758913 5.3125C0.550557 5.52081 0.371911 5.8036 0.223131 6.1607C0.0743901 6.51795 0 6.84514 0 7.1429V14.6429C0 14.9406 0.104099 15.1937 0.312415 15.4019C0.52077 15.6102 0.773806 15.7144 1.07133 15.7144H7.14286V18.9287C7.14286 19.2262 7.24692 19.4794 7.45528 19.6875C7.66351 19.896 7.91655 20 8.21419 20H18.9286C19.2261 20 19.4792 19.896 19.6874 19.6875C19.8959 19.4794 19.9999 19.2262 19.9999 18.9287V5.35726C20 5.05963 19.896 4.80655 19.6875 4.59819ZM12.8571 6.66301V9.99998H9.52014L12.8571 6.66301ZM5.71424 2.37724V5.7142H2.37727L5.71424 2.37724ZM7.90181 9.5982C7.69345 9.80656 7.51481 10.0893 7.36602 10.4465C7.21729 10.8039 7.1429 11.1309 7.1429 11.4287V14.2856H1.42866V7.1429H6.07134C6.36905 7.1429 6.62201 7.03876 6.83036 6.8304C7.0386 6.62205 7.14286 6.36909 7.14286 6.07158V1.42866H11.4287V6.07154L7.90181 9.5982ZM18.5713 18.5715H8.5712V11.4284H13.2142C13.5119 11.4284 13.7648 11.3244 13.973 11.116C14.1812 10.9078 14.2855 10.6548 14.2855 10.3572V5.71424H18.571V18.5715H18.5713Z" fill="#8A8A8C"/>
</svg>
