<svg width="29" height="28" viewBox="0 0 29 28" fill="none" xmlns="http://www.w3.org/2000/svg">
<path d="M12.3577 12.1217C11.683 12.1217 11.1504 12.7051 11.1504 13.4167C11.1504 14.1284 11.6949 14.7117 12.3577 14.7117C13.0324 14.7117 13.5651 14.1284 13.5651 13.4167C13.5769 12.7051 13.0324 12.1217 12.3577 12.1217ZM16.6781 12.1217C16.0034 12.1217 15.4708 12.7051 15.4708 13.4167C15.4708 14.1284 16.0153 14.7117 16.6781 14.7117C17.3528 14.7117 17.8855 14.1284 17.8855 13.4167C17.8855 12.7051 17.3528 12.1217 16.6781 12.1217Z" fill="currentColor"/>
<path d="M22.4303 2.33337H6.56911C5.23156 2.33337 4.14258 3.40671 4.14258 4.73671V20.51C4.14258 21.84 5.23156 22.9134 6.56911 22.9134H19.992L19.3646 20.755L20.8797 22.1434L22.312 23.45L24.8569 25.6667V4.73671C24.8569 3.40671 23.7679 2.33337 22.4303 2.33337ZM17.8614 17.57C17.8614 17.57 17.4352 17.0684 17.0801 16.625C18.6307 16.1934 19.2226 15.2367 19.2226 15.2367C18.7373 15.5517 18.2756 15.7734 17.8614 15.925C17.2695 16.17 16.7014 16.3334 16.145 16.4267C15.0087 16.6367 13.9671 16.5784 13.0793 16.415C12.4046 16.2867 11.8246 16.1 11.3393 15.9134C11.0671 15.8084 10.7711 15.68 10.4752 15.5167C10.4397 15.4934 10.4042 15.4817 10.3687 15.4584C10.345 15.4467 10.3332 15.435 10.3214 15.4234C10.1083 15.3067 9.98993 15.225 9.98993 15.225C9.98993 15.225 10.5581 16.1584 12.0614 16.6017C11.7063 17.045 11.2683 17.57 11.2683 17.57C8.65237 17.4884 7.65809 15.7967 7.65809 15.7967C7.65809 12.04 9.36258 8.99504 9.36258 8.99504C11.0671 7.73504 12.6887 7.77004 12.6887 7.77004L12.8071 7.91004C10.6765 8.51671 9.69401 9.43837 9.69401 9.43837C9.69401 9.43837 9.95442 9.29837 10.3924 9.10004C11.6589 8.55171 12.665 8.40004 13.0793 8.36504C13.1503 8.35337 13.2095 8.34171 13.2805 8.34171C14.0026 8.24837 14.8193 8.22504 15.6716 8.31837C16.796 8.44671 18.0034 8.77337 19.2344 9.43837C19.2344 9.43837 18.2993 8.56337 16.2871 7.95671L16.4528 7.77004C16.4528 7.77004 18.0744 7.73504 19.7789 8.99504C19.7789 8.99504 21.4834 12.04 21.4834 15.7967C21.4834 15.7967 20.4773 17.4884 17.8614 17.57Z" fill="currentColor"/>
</svg>
