<svg width="17" height="20" viewBox="0 0 17 20" fill="none" xmlns="http://www.w3.org/2000/svg">
<path d="M6.74086 8.1358C6.18714 8.1358 5.75 8.62062 5.75 9.21209C5.75 9.80356 6.19686 10.2884 6.74086 10.2884C7.29457 10.2884 7.73171 9.80356 7.73171 9.21209C7.74143 8.62062 7.29457 8.1358 6.74086 8.1358ZM10.2866 8.1358C9.73286 8.1358 9.29571 8.62062 9.29571 9.21209C9.29571 9.80356 9.74257 10.2884 10.2866 10.2884C10.8403 10.2884 11.2774 9.80356 11.2774 9.21209C11.2774 8.62062 10.8403 8.1358 10.2866 8.1358Z" fill="#7289DA"/>
<path d="M15.0086 0H1.99143C0.893714 0 0 0.892059 0 1.99744V15.1068C0 16.2122 0.893714 17.1043 1.99143 17.1043H13.0074L12.4926 15.3105L13.736 16.4643L14.9114 17.5503L17 19.3926V1.99744C17 0.892059 16.1063 0 15.0086 0ZM11.2589 12.6634C11.2589 12.6634 10.9091 12.2464 10.6177 11.878C11.8903 11.5192 12.376 10.7241 12.376 10.7241C11.9777 10.9859 11.5989 11.1701 11.2589 11.2962C10.7731 11.4998 10.3069 11.6356 9.85029 11.7131C8.91771 11.8877 8.06286 11.8392 7.33429 11.7034C6.78057 11.5968 6.30457 11.4416 5.90629 11.2865C5.68286 11.1992 5.44 11.0926 5.19714 10.9568C5.168 10.9374 5.13886 10.9277 5.10971 10.9083C5.09029 10.8986 5.08057 10.8889 5.07086 10.8792C4.896 10.7823 4.79886 10.7144 4.79886 10.7144C4.79886 10.7144 5.26514 11.4901 6.49886 11.8586C6.20743 12.227 5.848 12.6634 5.848 12.6634C3.70114 12.5955 2.88514 11.1895 2.88514 11.1895C2.88514 8.06732 4.284 5.53659 4.284 5.53659C5.68286 4.48939 7.01371 4.51847 7.01371 4.51847L7.11086 4.63483C5.36229 5.13904 4.556 5.90504 4.556 5.90504C4.556 5.90504 4.76971 5.78869 5.12914 5.62385C6.16857 5.16813 6.99429 5.04207 7.33429 5.01299C7.39257 5.00329 7.44114 4.99359 7.49943 4.99359C8.092 4.91602 8.76229 4.89663 9.46171 4.9742C10.3846 5.08086 11.3754 5.35236 12.3857 5.90504C12.3857 5.90504 11.6183 5.17782 9.96686 4.67361L10.1029 4.51847C10.1029 4.51847 11.4337 4.48939 12.8326 5.53659C12.8326 5.53659 14.2314 8.06732 14.2314 11.1895C14.2314 11.1895 13.4057 12.5955 11.2589 12.6634Z" fill="#7289DA"/>
</svg>
