<svg width="45" height="45" viewBox="0 0 45 45" fill="none" xmlns="http://www.w3.org/2000/svg">
<g>
<path d="M44.8079 1.27701C44.4456 0.447489 43.8186 0.0326737 42.9239 0.0322266H2.07509C1.18163 0.0322266 0.553762 0.447489 0.192042 1.27701C-0.169454 2.149 -0.0206748 2.89413 0.63905 3.51093L16.3728 19.2443V34.7543C16.3728 35.3082 16.5751 35.7862 16.9791 36.1911L25.1486 44.3603C25.5319 44.7643 26.0104 44.9671 26.5851 44.9671C26.8401 44.9671 27.1059 44.9135 27.3826 44.8072C28.2127 44.4453 28.6278 43.8179 28.6278 42.9243V19.2444L44.3611 3.51104C45.021 2.89424 45.1695 2.14934 44.8079 1.27701Z" fill="#3C7EFF"/>
</g>
</svg>
