<svg viewBox="0 0 21 22" id="instagram" xmlns="http://www.w3.org/2000/svg" width="100%" height="100%"><g clip-path="url(#asclip0)"><path d="M14.23.093H6.468C2.897.093 0 3.022 0 6.633v7.85c0 3.611 2.897 6.54 6.468 6.54h7.762c3.572 0 6.469-2.929 6.469-6.54v-7.85c0-3.611-2.897-6.54-6.469-6.54zm4.528 14.39c0 2.524-2.03 4.578-4.528 4.578H6.468c-2.496 0-4.527-2.054-4.527-4.578v-7.85c0-2.524 2.03-4.578 4.527-4.578h7.762c2.497 0 4.528 2.054 4.528 4.579v7.849z"></path><path d="M10.35 5.326c-2.858 0-5.175 2.342-5.175 5.232s2.317 5.233 5.175 5.233c2.857 0 5.174-2.343 5.174-5.233 0-2.89-2.317-5.232-5.174-5.232zm0 8.502c-1.783 0-3.235-1.467-3.235-3.27 0-1.804 1.452-3.27 3.235-3.27 1.782 0 3.234 1.466 3.234 3.27 0 1.803-1.452 3.27-3.234 3.27zm5.562-8.198c.381 0 .69-.312.69-.697a.693.693 0 0 0-.69-.697c-.38 0-.69.312-.69.697 0 .385.31.697.69.697z"></path></g></svg>