<svg width="38" height="38" viewBox="0 0 38 38" fill="none" xmlns="http://www.w3.org/2000/svg">
<path d="M8.84496 13.7586C8.27496 13.7586 7.72527 13.6721 7.20703 13.5129V20.9655H10.4829V13.5129C9.96465 13.6721 9.41496 13.7586 8.84496 13.7586Z" fill="#CBD4D8"/>
<path d="M22.9308 20.9655H17.6895V19.5399C17.6895 18.8801 18.2247 18.3448 18.8845 18.3448H21.7351C22.3956 18.3448 22.9308 18.8801 22.9308 19.5399V20.9655Z" fill="#DD352E"/>
<path d="M31.4484 20.9655H26.207V19.5399C26.207 18.8801 26.7423 18.3448 27.4021 18.3448H30.2527C30.9131 18.3448 31.4484 18.8801 31.4484 19.5399V20.9655Z" fill="#EBBA16"/>
<path d="M38 24.8966H0V30.138H38V24.8966Z" fill="#283238"/>
<path d="M36.6899 24.8966C36.5208 22.7064 34.6798 20.9656 32.4476 20.9656H5.55279C3.32062 20.9656 1.47958 22.7064 1.31055 24.8966H36.6899Z" fill="#38454F"/>
<path d="M6.55176 28.8276V31.4483V30.7932C6.55176 32.2417 7.72386 33.4138 9.17245 33.4138H15.7242C16.8104 33.4138 17.6897 34.2931 17.6897 35.3794" stroke="#546A79" stroke-width="2" stroke-miterlimit="10"/>
<path d="M8.84484 13.7587C11.9205 13.7587 14.4138 11.2653 14.4138 8.18969C14.4138 5.11404 11.9205 2.62073 8.84484 2.62073C5.76919 2.62073 3.27588 5.11404 3.27588 8.18969C3.27588 11.2653 5.76919 13.7587 8.84484 13.7587Z" fill="#DD352E"/>
<path d="M5.89638 9.17239C5.53473 9.17239 5.24121 8.87953 5.24121 8.51722C5.24121 6.34925 7.00428 4.58618 9.17225 4.58618C9.5339 4.58618 9.82742 4.87904 9.82742 5.24135C9.82742 5.60366 9.5339 5.89653 9.17225 5.89653C7.72694 5.89653 6.55156 7.07191 6.55156 8.51722C6.55156 8.87953 6.25804 9.17239 5.89638 9.17239Z" fill="#ED7161"/>
</svg>
