<svg width="22" height="22" viewBox="0 0 22 22" fill="none" xmlns="http://www.w3.org/2000/svg">
<g>
<path d="M20.3763 0H1.62649C0.728671 0 0.000976562 0.705495 0.000976562 1.57625V20.4231C0.000976562 21.2939 0.728927 22 1.62649 22H20.3763C21.2739 22 22.0008 21.2934 22.0008 20.4231V1.57625C22.0008 0.705751 21.2739 0 20.3763 0ZM6.67069 18.4155H3.34668V8.48277H6.67069V18.4155ZM5.00901 7.12579H4.98666C3.87197 7.12579 3.14939 6.36347 3.14939 5.40908C3.14939 4.43547 3.8932 3.69381 5.02998 3.69381C6.16687 3.69381 6.86618 4.43526 6.88827 5.40908C6.88827 6.36367 6.16713 7.12579 5.00901 7.12579ZM18.6528 18.4155H15.3298V13.1011C15.3298 11.7658 14.8484 10.8546 13.6467 10.8546C12.7274 10.8546 12.1817 11.4693 11.942 12.0628C11.8532 12.2748 11.8312 12.5712 11.8312 12.8673V18.4153H8.50893C8.50893 18.4153 8.5524 9.41418 8.50893 8.48261H11.8318V9.89079C12.2729 9.21414 13.0611 8.24891 14.8257 8.24891C17.0128 8.24891 18.6528 9.66773 18.6528 12.72V18.4155ZM11.8103 9.92235C11.816 9.91304 11.8239 9.90184 11.8318 9.89094V9.92235H11.8103Z" fill="currentColor"/>
</g>
</svg>
