<svg width="22" height="22" viewBox="0 0 22 22" fill="none" xmlns="http://www.w3.org/2000/svg">
<g>
<path d="M18.1998 2.67084C16.2672 0.890279 13.8635 0 10.9928 0C7.97514 0 5.40277 1.01129 3.28003 3.03819C1.15728 5.06508 0.09375 7.58466 0.09375 10.6012C0.09375 13.4925 1.1054 15.9775 3.12439 18.0606C5.15202 20.1436 7.8757 21.1852 11.3041 21.1852C13.3706 21.1852 15.3983 20.7617 17.387 19.9103C18.0355 19.6337 18.3511 18.8903 18.0873 18.2378C17.815 17.5636 17.0454 17.2524 16.3753 17.5376C14.646 18.281 12.9513 18.6526 11.2998 18.6526C8.67119 18.6526 6.63491 17.8531 5.19093 16.2498C3.75127 14.6507 3.02927 12.7708 3.02927 10.6142C3.02927 8.27182 3.80315 6.31839 5.34657 4.7496C6.88566 3.18512 8.78359 2.39857 11.0317 2.39857C13.1026 2.39857 14.8535 3.04251 16.2802 4.33039C17.7069 5.61827 18.4202 7.23892 18.4202 9.19235C18.4202 10.5278 18.0917 11.6428 17.4389 12.5287C16.786 13.419 16.1073 13.8598 15.4026 13.8598C15.0221 13.8598 14.8319 13.6567 14.8319 13.2461C14.8319 12.9134 14.8578 12.5244 14.9054 12.0749L15.7095 5.50158H12.9426L12.7654 6.14552C12.0607 5.57073 11.2868 5.28117 10.4481 5.28117C9.11649 5.28117 7.97514 5.81274 7.02833 6.87157C6.07721 7.9304 5.60596 9.29607 5.60596 10.9643C5.60596 12.5936 6.02533 13.9117 6.86837 14.91C7.71141 15.9127 8.72307 16.4097 9.90765 16.4097C10.9669 16.4097 11.8704 15.9645 12.6227 15.0786C13.189 15.9299 14.0234 16.3535 15.1259 16.3535C16.7471 16.3535 18.1479 15.649 19.3281 14.2358C20.5084 12.8269 21.1007 11.1242 21.1007 9.13184C21.1007 6.60794 20.1366 4.4514 18.1998 2.67084ZM11.8272 12.6152C11.3387 13.2721 10.755 13.6048 10.0763 13.6048C9.61367 13.6048 9.24187 13.3628 8.96085 12.8788C8.67551 12.3948 8.53284 11.794 8.53284 11.0723C8.53284 10.182 8.73171 9.46462 9.12946 8.92008C9.5272 8.37554 10.0201 8.09895 10.608 8.09895C11.1182 8.09895 11.5721 8.30207 11.9699 8.71263C12.3676 9.1232 12.5665 9.66774 12.5665 10.3506C12.5622 11.202 12.3157 11.9539 11.8272 12.6152Z" fill="currentColor"/>
</g>
</svg>
