<svg viewBox="0 0 24 26" id="medium" xmlns="http://www.w3.org/2000/svg" width="100%" height="100%"><g><path fill-rule="evenodd" clip-rule="evenodd" d="M2.8 7.862a.97.97 0 0 0-.298-.802L.298 4.298v-.412h6.845l5.29 12.063 4.651-12.063h6.525v.412l-1.885 1.88a.585.585 0 0 0-.21.55v13.804a.584.584 0 0 0 .21.55l1.84 1.878v.412h-9.258v-.412l1.908-1.925c.187-.194.187-.251.187-.549V9.328l-5.302 14h-.716l-6.173-14v9.383c-.05.393.075.791.342 1.076l2.48 3.127v.413H0v-.413l2.48-3.127a1.28 1.28 0 0 0 .32-1.076V7.86z" fill="currentColor"></path></g></svg>