<svg width="18" height="18" viewBox="0 0 18 18" fill="none" xmlns="http://www.w3.org/2000/svg">
<mask id="path-1-inside-1" fill="white">
<path d="M7.87069 0.469312C9.68584 0.226322 11.5781 0.582077 13.1699 1.49001C14.9639 2.49689 16.3673 4.17745 17.0294 6.12573C17.6456 7.91105 17.6397 9.9037 17.0133 11.6854C16.3193 13.6897 14.8388 15.4037 12.9618 16.3895C10.4992 17.7121 7.37598 17.6917 4.93081 16.3371C3.1906 15.3906 1.80032 13.817 1.08372 11.9698C0.376576 10.1736 0.315465 8.13512 0.90475 6.29815C1.44457 4.59577 2.54384 3.08108 3.98577 2.02837C5.12287 1.19464 6.47241 0.65119 7.87069 0.469312ZM7.80449 1.27685C6.1814 1.52857 4.64853 2.32156 3.50488 3.50013C2.12988 4.89259 1.31871 6.82851 1.31289 8.7877C1.28451 10.5003 1.85707 12.215 2.90541 13.5696C4.00396 15.0072 5.6234 16.0381 7.3949 16.4099C9.13147 16.7838 10.9961 16.5357 12.5682 15.7056C14.2714 14.8202 15.6173 13.275 16.2582 11.4657C16.9028 9.67163 16.8489 7.63605 16.0996 5.88274C15.3881 4.19272 14.0502 2.77698 12.4024 1.97163C10.991 1.27103 9.35991 1.03168 7.80449 1.27685Z"/>
</mask>
<path d="M7.87069 0.469312C9.68584 0.226322 11.5781 0.582077 13.1699 1.49001C14.9639 2.49689 16.3673 4.17745 17.0294 6.12573C17.6456 7.91105 17.6397 9.9037 17.0133 11.6854C16.3193 13.6897 14.8388 15.4037 12.9618 16.3895C10.4992 17.7121 7.37598 17.6917 4.93081 16.3371C3.1906 15.3906 1.80032 13.817 1.08372 11.9698C0.376576 10.1736 0.315465 8.13512 0.90475 6.29815C1.44457 4.59577 2.54384 3.08108 3.98577 2.02837C5.12287 1.19464 6.47241 0.65119 7.87069 0.469312ZM7.80449 1.27685C6.1814 1.52857 4.64853 2.32156 3.50488 3.50013C2.12988 4.89259 1.31871 6.82851 1.31289 8.7877C1.28451 10.5003 1.85707 12.215 2.90541 13.5696C4.00396 15.0072 5.6234 16.0381 7.3949 16.4099C9.13147 16.7838 10.9961 16.5357 12.5682 15.7056C14.2714 14.8202 15.6173 13.275 16.2582 11.4657C16.9028 9.67163 16.8489 7.63605 16.0996 5.88274C15.3881 4.19272 14.0502 2.77698 12.4024 1.97163C10.991 1.27103 9.35991 1.03168 7.80449 1.27685Z" fill="white"/>
<path d="M7.87069 0.469312L8.38664 4.4359L8.39403 4.43494L8.40143 4.43395L7.87069 0.469312ZM13.1699 1.49001L11.1881 4.96455L11.2001 4.97142L11.2122 4.9782L13.1699 1.49001ZM17.0294 6.12573L13.242 7.41268L13.2451 7.42174L13.2482 7.43078L17.0294 6.12573ZM17.0133 11.6854L13.2398 10.3587L13.2366 10.3676L13.2336 10.3765L17.0133 11.6854ZM12.9618 16.3895L11.102 12.8482L11.0855 12.8568L11.0692 12.8656L12.9618 16.3895ZM4.93081 16.3371L6.86923 12.8382L6.85564 12.8306L6.842 12.8232L4.93081 16.3371ZM1.08372 11.9698L4.81292 10.5231L4.80932 10.5138L4.80568 10.5046L1.08372 11.9698ZM0.90475 6.29815L4.71359 7.51999L4.71765 7.5072L0.90475 6.29815ZM3.98577 2.02837L6.34437 5.25902L6.35096 5.25419L3.98577 2.02837ZM7.80449 1.27685L8.41751 5.22961L8.42729 5.22807L7.80449 1.27685ZM3.50488 3.50013L6.3511 6.31066L6.36336 6.29824L6.37552 6.28571L3.50488 3.50013ZM1.31289 8.7877L5.31234 8.85396L5.31279 8.82677L5.31287 8.79958L1.31289 8.7877ZM2.90541 13.5696L6.08366 11.1409L6.07624 11.1312L6.06876 11.1215L2.90541 13.5696ZM7.3949 16.4099L8.23693 12.4995L8.22668 12.4973L8.21643 12.4951L7.3949 16.4099ZM12.5682 15.7056L10.7232 12.1566L10.7119 12.1624L10.7006 12.1684L12.5682 15.7056ZM16.2582 11.4657L12.4938 10.1132L12.4908 10.1216L12.4878 10.13L16.2582 11.4657ZM16.0996 5.88274L12.413 7.43482L12.4172 7.44479L12.4214 7.45473L16.0996 5.88274ZM12.4024 1.97163L10.6239 5.55449L10.6349 5.55997L10.646 5.56537L12.4024 1.97163ZM8.40143 4.43395C9.36776 4.30458 10.3747 4.50058 11.1881 4.96455L15.1517 -1.98452C12.7815 -3.33643 10.0039 -3.85194 7.33995 -3.49532L8.40143 4.43395ZM11.2122 4.9782C12.1517 5.5055 12.8997 6.4052 13.242 7.41268L20.8167 4.83878C19.8349 1.94969 17.7761 -0.511717 15.1276 -1.99818L11.2122 4.9782ZM13.2482 7.43078C13.57 8.36297 13.5669 9.42816 13.2398 10.3587L20.7869 13.0121C21.7126 10.3792 21.7211 7.45912 20.8105 4.82067L13.2482 7.43078ZM13.2336 10.3765C12.8744 11.4136 12.084 12.3324 11.102 12.8482L14.8217 19.9308C17.5936 18.475 19.7642 15.9657 20.7931 12.9943L13.2336 10.3765ZM11.0692 12.8656C9.80479 13.5447 8.12468 13.5337 6.86923 12.8382L2.99239 19.836C6.62728 21.8498 11.1936 21.8796 14.8544 19.9134L11.0692 12.8656ZM6.842 12.8232C5.92736 12.3258 5.18475 11.4816 4.81292 10.5231L-2.64548 13.4166C-1.58411 16.1524 0.453831 18.4555 3.01962 19.851L6.842 12.8232ZM4.80568 10.5046C4.43911 9.57343 4.40417 8.48446 4.71357 7.51999L-2.90407 5.07631C-3.77324 7.78577 -3.68595 10.7738 -2.63824 13.4351L4.80568 10.5046ZM4.71765 7.5072C4.9965 6.6278 5.58012 5.81696 6.34436 5.25901L1.62717 -1.20227C-0.492443 0.345204 -2.10737 2.56373 -2.90815 5.0891L4.71765 7.5072ZM6.35096 5.25419C6.94815 4.81632 7.66248 4.53009 8.38664 4.4359L7.35475 -3.49727C5.28234 -3.22771 3.2976 -2.42704 1.62058 -1.19744L6.35096 5.25419ZM7.19147 -2.67589C4.70827 -2.29078 2.38305 -1.08765 0.634248 0.714553L6.37552 6.28571C6.91402 5.73077 7.65454 5.34793 8.41751 5.2296L7.19147 -2.67589ZM0.658668 0.689606C-1.44058 2.81551 -2.67811 5.7515 -2.6871 8.77582L5.31287 8.79958C5.31552 7.90551 5.70035 6.96967 6.3511 6.31066L0.658668 0.689606ZM-2.68657 8.72144C-2.73006 11.3465 -1.86028 13.9473 -0.257934 16.0178L6.06876 11.1215C5.57441 10.4828 5.29908 9.65405 5.31234 8.85396L-2.68657 8.72144ZM-0.272841 15.9984C1.40004 18.1875 3.85114 19.7533 6.57337 20.3246L8.21643 12.4951C7.39566 12.3229 6.60788 11.8269 6.08366 11.1409L-0.272841 15.9984ZM6.55287 20.3202C9.19534 20.8892 12.0206 20.5181 14.4359 19.2428L10.7006 12.1684C9.97154 12.5533 9.0676 12.6784 8.23693 12.4995L6.55287 20.3202ZM14.4133 19.2547C17.0136 17.9029 19.0487 15.5675 20.0286 12.8013L12.4878 10.13C12.1858 10.9825 11.5291 11.7376 10.7232 12.1566L14.4133 19.2547ZM20.0226 12.8182C21.0056 10.0821 20.9277 7.00146 19.7778 4.31075L12.4214 7.45473C12.7701 8.27063 12.7999 9.26119 12.4938 10.1132L20.0226 12.8182ZM19.7862 4.33065C18.6995 1.74954 16.6762 -0.391773 14.1588 -1.62212L10.646 5.56537C11.4242 5.94574 12.0766 6.63591 12.413 7.43482L19.7862 4.33065ZM14.1809 -1.61124C12.0099 -2.6889 9.53773 -3.04573 7.18168 -2.67436L8.42729 5.22807C9.18209 5.10909 9.97211 5.23097 10.6239 5.55449L14.1809 -1.61124Z" fill="white" mask="url(#path-1-inside-1)"/>
<path d="M4.87098 4.626C5.11979 3.42415 5.93461 2.34379 7.03097 1.78943C6.84036 1.98295 6.60901 2.13209 6.43368 2.34161C5.71199 3.12078 5.38533 4.2477 5.58467 5.29168C5.83639 6.87475 7.3227 8.16026 8.93269 8.1428C10.1826 8.19882 11.4077 7.47931 12.0173 6.39531C13.3269 6.43969 14.6 7.11555 15.3428 8.19955C15.7255 8.76628 16.0245 9.42977 16.0449 10.1209C15.8033 9.20424 15.1929 8.38943 14.3614 7.92964C13.5568 7.47713 12.5695 7.36145 11.6849 7.62918C10.5805 7.94637 9.6682 8.85067 9.34228 9.95286C9.07455 10.8382 9.1895 11.8146 9.60928 12.6337C9.02508 13.645 7.97019 14.3689 6.82435 14.5849C5.94406 14.7697 5.01794 14.6271 4.20312 14.2576C4.93719 14.4714 5.73381 14.5085 6.46205 14.2495C7.44056 13.9251 8.24955 13.1394 8.60531 12.171C9.00035 11.1161 8.84975 9.86846 8.18553 8.95398C7.68864 8.24102 6.90875 7.73685 6.05901 7.56006C5.79056 7.51205 5.51774 7.49022 5.24565 7.46549C4.81424 6.59393 4.65491 5.5805 4.87098 4.626Z" fill="white"/>
<circle cx="9" cy="9" r="8.5" stroke="white"/>
</svg>
