<svg viewBox="0 0 23 23" fill="none" xmlns="http://www.w3.org/2000/svg">
<path d="M11.5 23C5.1497 23 0 17.8503 0 11.5C0 5.1497 5.1497 0 11.5 0C17.8503 0 23 5.1497 23 11.5C23 17.8503 17.8503 23 11.5 23Z" fill="currentColor"/>
<path d="M14.1356 13.8967C13.4755 13.8967 12.9373 13.3585 12.9373 12.6984C12.9373 12.0383 13.4755 11.5001 14.1356 11.5001C14.7957 11.5001 15.3339 12.0383 15.3339 12.6984C15.3339 13.3585 14.7957 13.8967 14.1356 13.8967ZM14.3472 15.8632C13.5284 16.6797 11.9621 16.7441 11.5021 16.7441C11.0421 16.7441 9.47352 16.6797 8.65702 15.8632C8.53512 15.7413 8.53512 15.5458 8.65702 15.4239C8.77892 15.302 8.97442 15.302 9.09632 15.4239C9.61152 15.9391 10.7132 16.1231 11.5021 16.1231C12.2887 16.1231 13.3927 15.9391 13.9079 15.4239C14.0298 15.302 14.2253 15.302 14.3472 15.4239C14.4668 15.5458 14.4668 15.7413 14.3472 15.8632ZM7.66572 12.6984C7.66572 12.0383 8.20392 11.5001 8.86402 11.5001C9.52412 11.5001 10.0623 12.0383 10.0623 12.6984C10.0623 13.3585 9.52412 13.8967 8.86402 13.8967C8.20392 13.8967 7.66572 13.3585 7.66572 12.6984ZM19.1657 11.5001C19.1657 10.5732 18.4159 9.82336 17.489 9.82336C17.0359 9.82336 16.6265 10.0028 16.3252 10.2949C15.1798 9.46686 13.5997 8.93326 11.8402 8.87116L12.6038 5.27626L15.0993 5.80756C15.1292 6.44236 15.649 6.94836 16.2907 6.94836C16.9531 6.94836 17.489 6.41246 17.489 5.75006C17.489 5.08766 16.9531 4.55176 16.2907 4.55176C15.8192 4.55176 15.4167 4.82546 15.2212 5.22106L12.4336 4.62766C12.3554 4.61156 12.2749 4.62536 12.2082 4.66906C12.1415 4.71276 12.0955 4.77946 12.0794 4.85766L11.2422 8.80216C11.2376 8.82516 11.2422 8.84586 11.2422 8.86886C9.45052 8.91486 7.84052 9.45076 6.67672 10.2903C6.37542 10.0005 5.96832 9.82336 5.51752 9.82336C4.59062 9.82336 3.84082 10.5755 3.84082 11.5001C3.84082 12.1809 4.24792 12.7674 4.83212 13.0296C4.80682 13.1952 4.79302 13.3654 4.79302 13.5379C4.79302 16.1185 7.79682 18.2092 11.5021 18.2092C15.2074 18.2092 18.2112 16.1185 18.2112 13.5379C18.2112 13.3677 18.1974 13.1998 18.1721 13.0342C18.754 12.772 19.1657 12.1855 19.1657 11.5001Z" fill="white"/>
</svg>
