<svg width="39" height="39" viewBox="0 0 39 39" fill="none" xmlns="http://www.w3.org/2000/svg">
<g>
<path d="M9.74741 16.7245L8.04387 16.7231C4.57272 19.6121 -0.125582 24.1557 0.00256621 29.4614C0.0541041 31.6859 1.95265 33.4298 4.17714 33.4298H11.1417C12.6809 33.4298 13.9275 32.1831 13.9275 30.6439V23.6794C13.9275 22.6514 14.4917 21.7627 15.3205 21.2794V20.8935C15.3205 18.8724 13.3676 16.7245 9.74741 16.7245Z" fill="#1FC66C"/>
<path d="M37.6079 8.36522V6.54746C37.6079 5.67828 36.5576 5.24369 35.9434 5.85797L33.4375 8.36382L18.0597 8.35825C16.5289 8.35825 15.168 9.22325 14.3908 10.541C14.2988 10.6956 14.1916 10.8279 14.0941 10.9755C13.3377 10.2192 12.293 9.74977 11.1383 9.74977H8.36919C7.59752 9.74977 6.9707 10.3752 6.9707 11.1483C6.9707 11.9213 7.59752 12.5468 8.36919 12.5468H9.74261C10.5115 12.5468 11.1355 13.1708 11.1355 13.9397V14.1974C10.8026 14.4968 10.3207 14.8827 9.75654 15.3326C14.1651 15.3354 16.7142 18.1087 16.7142 20.8931V21.5896C16.7142 25.051 19.5209 27.8577 22.9823 27.8577C26.4437 27.8577 29.2504 25.051 29.2504 21.5896C29.2504 19.8108 29.2504 18.7452 29.2504 18.124C29.2504 17.5417 29.2504 17.3509 29.2504 17.3635C29.2504 16.7464 29.2504 15.6892 29.2504 13.9271H39.0008V8.36522H37.6079ZM18.1071 11.1427H26.4646V12.5356H18.1071V11.1427ZM18.1071 16.7144V15.3214H26.4646V16.7144H18.1071ZM27.1611 21.5896C27.1611 23.8934 25.2862 25.7683 22.9824 25.7683C20.8637 25.7683 19.1282 24.179 18.8579 22.1328C18.8482 21.4907 19.1282 20.8931 20.1965 20.8931H20.8874C21.0434 22.0673 21.6187 23.1051 22.4684 23.8503C22.7135 24.0662 23.1091 23.8154 23.0228 23.5006C22.8027 22.7039 22.7915 21.8236 23.0799 20.8931C25.1595 20.8931 25.0912 20.8931 27.1611 20.8931V21.5896Z" fill="#1FC66C"/>
</g>
</svg>
