<svg width="57" height="28" viewBox="0 0 57 28" fill="none" xmlns="http://www.w3.org/2000/svg">
<path d="M28.5 28C27.7765 28 27.1047 27.7189 26.6009 27.2204L0.19379 1.09904C-0.0645965 0.843451 -0.0645965 0.447284 0.19379 0.191693C0.452176 -0.0638978 0.852675 -0.0638978 1.11106 0.191693L27.5181 26.3131C27.7765 26.5687 28.1253 26.7093 28.5 26.7093C28.8747 26.7093 29.2235 26.5687 29.4819 26.3131L55.8889 0.204473C56.1473 -0.0511182 56.5478 -0.0511182 56.8062 0.204473C57.0646 0.460064 57.0646 0.85623 56.8062 1.11182L30.3991 27.2204C29.8824 27.7189 29.2106 28 28.5 28Z" fill="white"/>
</svg>
