<svg width="25" height="26" viewBox="0 0 25 26" fill="none" xmlns="http://www.w3.org/2000/svg">
<g>
<path d="M24.8384 4.77052C23.9147 5.18023 22.9305 5.4518 21.9044 5.58366C22.96 4.94633 23.7657 3.94482 24.1445 2.73767C23.1603 3.33104 22.0736 3.75017 20.9155 3.98406C19.981 2.97784 18.649 2.35464 17.196 2.35464C14.3768 2.35464 12.1072 4.66848 12.1072 7.50505C12.1072 7.91319 12.1413 8.30563 12.2252 8.67924C7.99176 8.47046 4.24582 6.41877 1.72938 3.29337C1.29005 4.06412 1.03235 4.94633 1.03235 5.89604C1.03235 7.6793 1.9405 9.26005 3.2942 10.1752C2.47608 10.1595 1.67349 9.91935 0.993537 9.54104C0.993537 9.55674 0.993537 9.57714 0.993537 9.59755C0.993537 12.0998 2.75862 14.1781 5.07325 14.6569C4.65876 14.7715 4.20701 14.8264 3.73818 14.8264C3.41218 14.8264 3.08307 14.8076 2.77414 14.7385C3.43391 16.7777 5.30611 18.2768 7.53225 18.3255C5.79977 19.6959 3.60002 20.5216 1.21864 20.5216C0.801039 20.5216 0.40052 20.5027 0 20.4509C2.25564 21.9218 4.92888 22.7616 7.81169 22.7616C17.182 22.7616 22.3049 14.9128 22.3049 8.10941C22.3049 7.88179 22.2971 7.66203 22.2863 7.44383C23.2969 6.7186 24.1461 5.81284 24.8384 4.77052Z" fill="currentColor"/>
</g>
</svg>
