<svg width="36" height="35" viewBox="0 0 36 35" fill="none" xmlns="http://www.w3.org/2000/svg">
<path d="M18.0932 0C8.47498 0 0.677612 7.79183 0.677612 17.4036C0.677612 27.0153 8.47498 34.8071 18.0932 34.8071C27.7115 34.8071 35.5088 27.0153 35.5088 17.4036C35.5088 7.79183 27.7115 0 18.0932 0ZM24.1125 18.3261L15.4047 23.7647C15.2285 23.8746 15.0281 23.9299 14.8278 23.9299C14.6463 23.9299 14.4645 23.8847 14.3 23.7934C13.954 23.6017 13.7393 23.2378 13.7393 22.8422V11.9649C13.7393 11.5693 13.954 11.2054 14.3 11.0137C14.646 10.8209 15.0691 10.8326 15.4047 11.0424L24.1125 16.481C24.4306 16.6802 24.6241 17.0286 24.6241 17.4036C24.6241 17.7785 24.4306 18.127 24.1125 18.3261Z" fill="#FF9900"/>
</svg>
