<svg width="34" height="42" viewBox="0 0 34 42" fill="none" xmlns="http://www.w3.org/2000/svg">
<path fill-rule="evenodd" clip-rule="evenodd" d="M26.7826 34.3531H7.21739C4.33609 34.3531 2 32.0353 2 29.1766V13.6472C2 10.7885 4.33609 8.4707 7.21739 8.4707H26.7826C29.6639 8.4707 32 10.7885 32 13.6472V29.1766C32 32.0353 29.6639 34.3531 26.7826 34.3531Z" stroke="#FF9900" stroke-width="3" stroke-linecap="round" stroke-linejoin="round"/>
<path fill-rule="evenodd" clip-rule="evenodd" d="M8.4707 39.6471H25.5295V34.353H8.4707V39.6471Z" stroke="#FF9900" stroke-width="3" stroke-linecap="round" stroke-linejoin="round"/>
<path fill-rule="evenodd" clip-rule="evenodd" d="M24.3524 8.47059H9.64648V3.29412C9.64648 2.57847 10.2441 2 10.9834 2H23.0155C23.7548 2 24.3524 2.57847 24.3524 3.29412V8.47059Z" stroke="#FF9900" stroke-width="3" stroke-linecap="round" stroke-linejoin="round"/>
<path d="M10.8242 25.5293C12.2778 26.9634 14.3628 27.8822 16.7066 27.8822C19.0504 27.8822 21.1353 26.9634 22.5889 25.5293" stroke="#FF9900" stroke-width="3" stroke-linecap="round" stroke-linejoin="round"/>
<path fill-rule="evenodd" clip-rule="evenodd" d="M12.0007 18.1763C12.0007 18.6634 11.7372 19.0587 11.4125 19.0587C11.0877 19.0587 10.8242 18.6634 10.8242 18.1763C10.8242 17.6892 11.0877 17.2939 11.4125 17.2939C11.7372 17.2939 12.0007 17.6892 12.0007 18.1763Z" stroke="#FF9900" stroke-width="3" stroke-linecap="round" stroke-linejoin="round"/>
<path fill-rule="evenodd" clip-rule="evenodd" d="M22.5886 18.1763C22.5886 18.6634 22.3251 19.0587 22.0003 19.0587C21.6756 19.0587 21.4121 18.6634 21.4121 18.1763C21.4121 17.6892 21.6756 17.2939 22.0003 17.2939C22.3251 17.2939 22.5886 17.6892 22.5886 18.1763Z" stroke="#FF9900" stroke-width="3" stroke-linecap="round" stroke-linejoin="round"/>
</svg>
