<svg viewBox="0 0 26 22" id="story" xmlns="http://www.w3.org/2000/svg" width="100%" height="100%"><path d="M25.48 4.61a29.985 29.985 0 0 0-2.578-.724V.762A.762.762 0 0 0 22.141 0C16.677 0 13.245 2.775 13 2.893 12.756 2.776 9.32 0 3.86 0a.762.762 0 0 0-.762.762v3.124A30.07 30.07 0 0 0 .52 4.61a.762.762 0 0 0-.52.722v15.234a.762.762 0 0 0 1.003.723 29.438 29.438 0 0 1 9.197-1.484h5.6c3.104 0 6.284.513 9.197 1.484A.762.762 0 0 0 26 20.566V5.332a.762.762 0 0 0-.52-.723zM10.2 18.28c-2.958 0-5.872.42-8.677 1.248V5.888a29.223 29.223 0 0 1 1.575-.434v10.542c0 .42.34.762.761.762 2.25 0 4.443.523 6.431 1.523h-.09zm2.038-.652a15.792 15.792 0 0 0-7.617-2.377V1.543c4.572.241 7.338 2.533 7.617 2.673V17.63zm4.57-15.078c.499-.2 1.007-.372 1.524-.514v2.98l-.223-.224a.762.762 0 0 0-1.077 0l-.223.224V2.55zm-3.046 1.665c.293-.19.755-.528 1.523-.947v3.586a.762.762 0 0 0 1.3.539l.985-.985.985.985a.762.762 0 0 0 1.3-.539v-5.15c.503-.08 1.012-.135 1.524-.162v13.71a15.792 15.792 0 0 0-7.617 2.376V4.216zM24.477 19.53a30.598 30.598 0 0 0-8.677-1.25h-.09a14.28 14.28 0 0 1 6.43-1.523.762.762 0 0 0 .762-.762V5.453c.551.136 1.077.282 1.575.435v13.64z"></path></svg>