<svg viewBox="0 0 26 25" id="team" xmlns="http://www.w3.org/2000/svg" width="100%" height="100%"><path d="M20.13 17.714l5.216-5.216c.79-.79.79-2.075 0-2.865a2.013 2.013 0 0 0-.977-.54 2.02 2.02 0 0 0 .188-.854c0-.542-.21-1.05-.593-1.433a2.01 2.01 0 0 0-1.088-.564 2.028 2.028 0 0 0-.491-2.067 2.014 2.014 0 0 0-1.087-.563 2.028 2.028 0 0 0-2.892-2.416l-.052-.056A3.588 3.588 0 0 0 15.736 0h-4.222a.538.538 0 0 0-.537.538v.705c0 .282.047.557.139.815a2.023 2.023 0 0 0-.778-.154 2.028 2.028 0 0 0-1.923 2.662 2.015 2.015 0 0 0-1.088.562 2.03 2.03 0 0 0-.492 2.067 2.03 2.03 0 0 0-1.492 2.85 2.028 2.028 0 0 0-.977 3.407l1.072 1.072-5.28 5.28a.538.538 0 0 0 .76.761l5.331-5.331c.302.172.645.264 1.002.264a2.02 2.02 0 0 0 2.023-2.108l.081.002a2.02 2.02 0 0 0 1.433-.592 2.013 2.013 0 0 0 .591-1.515l.081.002a2.02 2.02 0 0 0 1.433-.592 2.013 2.013 0 0 0 .591-1.514l.081.001a2.02 2.02 0 0 0 1.433-.592 2.029 2.029 0 0 0 .134-2.717l3.569-3.569a.944.944 0 0 1 .672-.278.949.949 0 0 1 .951.95.944.944 0 0 1-.279.673l-.526.526-1.909 1.91a.538.538 0 1 0 .76.76l1.91-1.91a.952.952 0 0 1 1.344 1.345l-.526.526-1.383 1.383a.538.538 0 0 0 .76.76l1.383-1.382a.944.944 0 0 1 .672-.279c.254 0 .493.099.673.279.18.18.278.418.278.672a.944.944 0 0 1-.278.672l-.723.722-.66.661a.538.538 0 0 0 .76.76l.661-.66a.952.952 0 0 1 1.344 1.344l-5.215 5.216a7.284 7.284 0 0 1-4.902 2.135.538.538 0 0 0-.361.158l-4.818 4.836a.538.538 0 0 0 .762.759l3.543-3.557c.9.577 1.96.852 3.036.78l2.773 2.774a.536.536 0 0 0 .76 0c.21-.21.21-.55 0-.76l-2.948-2.95a.538.538 0 0 0-.424-.155l-.17.014a3.925 3.925 0 0 1-2.244-.488l.345-.347a8.354 8.354 0 0 0 5.409-2.439zm-12.207-3.57a.945.945 0 0 1-.672.279.944.944 0 0 1-.673-.279l-1.452-1.452a.952.952 0 0 1 1.344-1.345L7.923 12.8c.37.37.37.973 0 1.344zm2.105-2.105a.952.952 0 0 1-1.345 0L7.23 10.586l-.722-.722A.952.952 0 0 1 7.853 8.52l2.175 2.175c.18.18.278.418.278.672a.945.945 0 0 1-.278.672zm2.105-2.105a.952.952 0 0 1-1.345 0l-2.701-2.7a.944.944 0 0 1-.279-.673.948.948 0 0 1 1.623-.673l1.231 1.231 1.47 1.47c.18.18.279.42.279.673a.944.944 0 0 1-.278.672zm2.105-2.104a.952.952 0 0 1-1.345 0l-2.701-2.702h-.001l-.526-.526a.952.952 0 0 1 1.345-1.345l3.227 3.228c.18.18.279.418.279.672a.944.944 0 0 1-.278.673zm.14-2.724l-1.476-1.477c.168.036.34.055.515.055h.012l1.475-.007a.538.538 0 0 0-.002-1.076h-.003l-1.475.007h-.007c-.363 0-.705-.14-.963-.397a1.356 1.356 0 0 1-.402-.968v-.168h3.684c.692 0 1.36.29 1.83.797l.023.024-3.21 3.21z"></path></svg>