<svg width="73" height="73" viewBox="0 0 73 73" fill="none" xmlns="http://www.w3.org/2000/svg">
<g>
<path d="M48.4681 70.0038L48.4698 70.0061C48.4726 70.0085 48.4754 70.0109 48.4792 70.0134C48.6556 70.2113 48.8781 70.3676 49.1168 70.5001C49.1898 70.5418 49.2601 70.5718 49.3353 70.6045C49.5215 70.6866 49.7176 70.7472 49.9256 70.7846C50.0018 70.8 50.0732 70.8209 50.1524 70.8285C50.1929 70.8333 50.2282 70.8479 50.2679 70.8506C50.5115 70.8656 50.7512 70.8453 50.9799 70.7969C51.0039 70.7936 51.0241 70.7796 51.0484 70.7743C51.3011 70.7144 51.531 70.6128 51.7456 70.4857C51.7755 70.4677 51.8128 70.465 51.8428 70.446L65.3975 61.4925C66.4353 60.8074 66.6117 59.4987 65.7885 58.5675C64.966 57.6384 63.4576 57.441 62.4175 58.1278L55.1092 62.9539C57.1905 54.8647 56.4358 46.5751 56.3969 46.1832C54.8861 20.6892 33.9778 0.253774 9.78867 0.628013C8.59098 0.646758 7.64666 1.42526 7.52559 2.42841C7.51264 2.53571 7.5088 2.64411 7.51383 2.75563C7.58297 3.91012 8.71067 4.8288 10.0347 4.8099C31.5805 4.47609 50.2279 23.0694 51.6074 46.324C51.6191 46.4312 52.4031 54.9966 50.2194 62.7088L46.1118 53.4044C45.6292 52.314 44.2378 51.7425 43.0035 52.1245C41.7672 52.5052 41.1622 53.6975 41.6373 54.79L48.112 69.4566C48.202 69.6554 48.3227 69.8384 48.4681 70.0038Z" fill="#FF9900"/>
</g>
<defs>
</defs>
</svg>
