<svg width="412" height="299" viewBox="0 0 412 299" fill="none" xmlns="http://www.w3.org/2000/svg">
<path d="M1 2C1.55228 2 2 1.55228 2 1C2 0.447715 1.55228 0 1 0C0.447715 0 0 0.447715 0 1C0 1.55228 0.447715 2 1 2Z" fill="#4B3B56"/>
<path d="M20.0525 35C20.6048 35 21.0525 34.5523 21.0525 34C21.0525 33.4477 20.6048 33 20.0525 33C19.5002 33 19.0525 33.4477 19.0525 34C19.0525 34.5523 19.5002 35 20.0525 35Z" fill="#4B3B56"/>
<path d="M1 68C1.55228 68 2 67.5523 2 67C2 66.4477 1.55228 66 1 66C0.447715 66 0 66.4477 0 67C0 67.5523 0.447715 68 1 68Z" fill="#4B3B56"/>
<path d="M20.0525 101C20.6048 101 21.0525 100.552 21.0525 100C21.0525 99.4477 20.6048 99 20.0525 99C19.5002 99 19.0525 99.4477 19.0525 100C19.0525 100.552 19.5002 101 20.0525 101Z" fill="#4B3B56"/>
<path d="M1 134C1.55228 134 2 133.552 2 133C2 132.448 1.55228 132 1 132C0.447715 132 0 132.448 0 133C0 133.552 0.447715 134 1 134Z" fill="#4B3B56"/>
<path d="M20.0525 167C20.6048 167 21.0525 166.552 21.0525 166C21.0525 165.448 20.6048 165 20.0525 165C19.5002 165 19.0525 165.448 19.0525 166C19.0525 166.552 19.5002 167 20.0525 167Z" fill="#4B3B56"/>
<path d="M1 200C1.55228 200 2 199.552 2 199C2 198.448 1.55228 198 1 198C0.447715 198 0 198.448 0 199C0 199.552 0.447715 200 1 200Z" fill="#4B3B56"/>
<path d="M20.0525 233C20.6048 233 21.0525 232.552 21.0525 232C21.0525 231.448 20.6048 231 20.0525 231C19.5002 231 19.0525 231.448 19.0525 232C19.0525 232.552 19.5002 233 20.0525 233Z" fill="#4B3B56"/>
<path d="M1 266C1.55228 266 2 265.552 2 265C2 264.448 1.55228 264 1 264C0.447715 264 0 264.448 0 265C0 265.552 0.447715 266 1 266Z" fill="#4B3B56"/>
<path d="M20.0525 299C20.6048 299 21.0525 298.552 21.0525 298C21.0525 297.448 20.6048 297 20.0525 297C19.5002 297 19.0525 297.448 19.0525 298C19.0525 298.552 19.5002 299 20.0525 299Z" fill="#4B3B56"/>
<path d="M39.1052 2C39.6575 2 40.1052 1.55228 40.1052 1C40.1052 0.447715 39.6575 0 39.1052 0C38.5529 0 38.1052 0.447715 38.1052 1C38.1052 1.55228 38.5529 2 39.1052 2Z" fill="#4B3B56"/>
<path d="M58.1577 35C58.71 35 59.1577 34.5523 59.1577 34C59.1577 33.4477 58.71 33 58.1577 33C57.6054 33 57.1577 33.4477 57.1577 34C57.1577 34.5523 57.6054 35 58.1577 35Z" fill="#4B3B56"/>
<path d="M39.1052 68C39.6575 68 40.1052 67.5523 40.1052 67C40.1052 66.4477 39.6575 66 39.1052 66C38.5529 66 38.1052 66.4477 38.1052 67C38.1052 67.5523 38.5529 68 39.1052 68Z" fill="#4B3B56"/>
<path d="M58.1577 101C58.71 101 59.1577 100.552 59.1577 100C59.1577 99.4477 58.71 99 58.1577 99C57.6054 99 57.1577 99.4477 57.1577 100C57.1577 100.552 57.6054 101 58.1577 101Z" fill="#4B3B56"/>
<path d="M39.1052 134C39.6575 134 40.1052 133.552 40.1052 133C40.1052 132.448 39.6575 132 39.1052 132C38.5529 132 38.1052 132.448 38.1052 133C38.1052 133.552 38.5529 134 39.1052 134Z" fill="#4B3B56"/>
<path d="M58.1577 167C58.71 167 59.1577 166.552 59.1577 166C59.1577 165.448 58.71 165 58.1577 165C57.6054 165 57.1577 165.448 57.1577 166C57.1577 166.552 57.6054 167 58.1577 167Z" fill="#4B3B56"/>
<path d="M39.1052 200C39.6575 200 40.1052 199.552 40.1052 199C40.1052 198.448 39.6575 198 39.1052 198C38.5529 198 38.1052 198.448 38.1052 199C38.1052 199.552 38.5529 200 39.1052 200Z" fill="#4B3B56"/>
<path d="M58.1577 233C58.71 233 59.1577 232.552 59.1577 232C59.1577 231.448 58.71 231 58.1577 231C57.6054 231 57.1577 231.448 57.1577 232C57.1577 232.552 57.6054 233 58.1577 233Z" fill="#4B3B56"/>
<path d="M39.1052 266C39.6575 266 40.1052 265.552 40.1052 265C40.1052 264.448 39.6575 264 39.1052 264C38.5529 264 38.1052 264.448 38.1052 265C38.1052 265.552 38.5529 266 39.1052 266Z" fill="#4B3B56"/>
<path d="M58.1577 299C58.71 299 59.1577 298.552 59.1577 298C59.1577 297.448 58.71 297 58.1577 297C57.6054 297 57.1577 297.448 57.1577 298C57.1577 298.552 57.6054 299 58.1577 299Z" fill="#4B3B56"/>
<path d="M77.2102 2C77.7625 2 78.2102 1.55228 78.2102 1C78.2102 0.447715 77.7625 0 77.2102 0C76.6579 0 76.2102 0.447715 76.2102 1C76.2102 1.55228 76.6579 2 77.2102 2Z" fill="#4B3B56"/>
<path d="M96.2627 35C96.815 35 97.2627 34.5523 97.2627 34C97.2627 33.4477 96.815 33 96.2627 33C95.7104 33 95.2627 33.4477 95.2627 34C95.2627 34.5523 95.7104 35 96.2627 35Z" fill="#4B3B56"/>
<path d="M77.2102 68C77.7625 68 78.2102 67.5523 78.2102 67C78.2102 66.4477 77.7625 66 77.2102 66C76.6579 66 76.2102 66.4477 76.2102 67C76.2102 67.5523 76.6579 68 77.2102 68Z" fill="#4B3B56"/>
<path d="M96.2627 101C96.815 101 97.2627 100.552 97.2627 100C97.2627 99.4477 96.815 99 96.2627 99C95.7104 99 95.2627 99.4477 95.2627 100C95.2627 100.552 95.7104 101 96.2627 101Z" fill="#4B3B56"/>
<path d="M77.2102 134C77.7625 134 78.2102 133.552 78.2102 133C78.2102 132.448 77.7625 132 77.2102 132C76.6579 132 76.2102 132.448 76.2102 133C76.2102 133.552 76.6579 134 77.2102 134Z" fill="#4B3B56"/>
<path d="M96.2627 167C96.815 167 97.2627 166.552 97.2627 166C97.2627 165.448 96.815 165 96.2627 165C95.7104 165 95.2627 165.448 95.2627 166C95.2627 166.552 95.7104 167 96.2627 167Z" fill="#4B3B56"/>
<path d="M77.2102 200C77.7625 200 78.2102 199.552 78.2102 199C78.2102 198.448 77.7625 198 77.2102 198C76.6579 198 76.2102 198.448 76.2102 199C76.2102 199.552 76.6579 200 77.2102 200Z" fill="#4B3B56"/>
<path d="M96.2627 233C96.815 233 97.2627 232.552 97.2627 232C97.2627 231.448 96.815 231 96.2627 231C95.7104 231 95.2627 231.448 95.2627 232C95.2627 232.552 95.7104 233 96.2627 233Z" fill="#4B3B56"/>
<path d="M77.2102 266C77.7625 266 78.2102 265.552 78.2102 265C78.2102 264.448 77.7625 264 77.2102 264C76.6579 264 76.2102 264.448 76.2102 265C76.2102 265.552 76.6579 266 77.2102 266Z" fill="#4B3B56"/>
<path d="M96.2627 299C96.815 299 97.2627 298.552 97.2627 298C97.2627 297.448 96.815 297 96.2627 297C95.7104 297 95.2627 297.448 95.2627 298C95.2627 298.552 95.7104 299 96.2627 299Z" fill="#4B3B56"/>
<path d="M115.315 2C115.868 2 116.315 1.55228 116.315 1C116.315 0.447715 115.868 0 115.315 0C114.763 0 114.315 0.447715 114.315 1C114.315 1.55228 114.763 2 115.315 2Z" fill="#4B3B56"/>
<path d="M134.368 35C134.92 35 135.368 34.5523 135.368 34C135.368 33.4477 134.92 33 134.368 33C133.816 33 133.368 33.4477 133.368 34C133.368 34.5523 133.816 35 134.368 35Z" fill="#4B3B56"/>
<path d="M115.315 68C115.868 68 116.315 67.5523 116.315 67C116.315 66.4477 115.868 66 115.315 66C114.763 66 114.315 66.4477 114.315 67C114.315 67.5523 114.763 68 115.315 68Z" fill="#4B3B56"/>
<path d="M134.368 101C134.92 101 135.368 100.552 135.368 100C135.368 99.4477 134.92 99 134.368 99C133.816 99 133.368 99.4477 133.368 100C133.368 100.552 133.816 101 134.368 101Z" fill="#4B3B56"/>
<path d="M115.315 134C115.868 134 116.315 133.552 116.315 133C116.315 132.448 115.868 132 115.315 132C114.763 132 114.315 132.448 114.315 133C114.315 133.552 114.763 134 115.315 134Z" fill="#4B3B56"/>
<path d="M134.368 167C134.92 167 135.368 166.552 135.368 166C135.368 165.448 134.92 165 134.368 165C133.816 165 133.368 165.448 133.368 166C133.368 166.552 133.816 167 134.368 167Z" fill="#4B3B56"/>
<path d="M115.315 200C115.868 200 116.315 199.552 116.315 199C116.315 198.448 115.868 198 115.315 198C114.763 198 114.315 198.448 114.315 199C114.315 199.552 114.763 200 115.315 200Z" fill="#4B3B56"/>
<path d="M134.368 233C134.92 233 135.368 232.552 135.368 232C135.368 231.448 134.92 231 134.368 231C133.816 231 133.368 231.448 133.368 232C133.368 232.552 133.816 233 134.368 233Z" fill="#4B3B56"/>
<path d="M115.315 266C115.868 266 116.315 265.552 116.315 265C116.315 264.448 115.868 264 115.315 264C114.763 264 114.315 264.448 114.315 265C114.315 265.552 114.763 266 115.315 266Z" fill="#4B3B56"/>
<path d="M134.368 299C134.92 299 135.368 298.552 135.368 298C135.368 297.448 134.92 297 134.368 297C133.816 297 133.368 297.448 133.368 298C133.368 298.552 133.816 299 134.368 299Z" fill="#4B3B56"/>
<path d="M153.42 2C153.973 2 154.42 1.55228 154.42 1C154.42 0.447715 153.973 0 153.42 0C152.868 0 152.42 0.447715 152.42 1C152.42 1.55228 152.868 2 153.42 2Z" fill="#4B3B56"/>
<path d="M172.473 35C173.025 35 173.473 34.5523 173.473 34C173.473 33.4477 173.025 33 172.473 33C171.921 33 171.473 33.4477 171.473 34C171.473 34.5523 171.921 35 172.473 35Z" fill="#4B3B56"/>
<path d="M153.42 68C153.973 68 154.42 67.5523 154.42 67C154.42 66.4477 153.973 66 153.42 66C152.868 66 152.42 66.4477 152.42 67C152.42 67.5523 152.868 68 153.42 68Z" fill="#4B3B56"/>
<path d="M172.473 101C173.025 101 173.473 100.552 173.473 100C173.473 99.4477 173.025 99 172.473 99C171.921 99 171.473 99.4477 171.473 100C171.473 100.552 171.921 101 172.473 101Z" fill="#4B3B56"/>
<path d="M153.42 134C153.973 134 154.42 133.552 154.42 133C154.42 132.448 153.973 132 153.42 132C152.868 132 152.42 132.448 152.42 133C152.42 133.552 152.868 134 153.42 134Z" fill="#4B3B56"/>
<path d="M172.473 167C173.025 167 173.473 166.552 173.473 166C173.473 165.448 173.025 165 172.473 165C171.921 165 171.473 165.448 171.473 166C171.473 166.552 171.921 167 172.473 167Z" fill="#4B3B56"/>
<path d="M153.42 200C153.973 200 154.42 199.552 154.42 199C154.42 198.448 153.973 198 153.42 198C152.868 198 152.42 198.448 152.42 199C152.42 199.552 152.868 200 153.42 200Z" fill="#4B3B56"/>
<path d="M172.473 233C173.025 233 173.473 232.552 173.473 232C173.473 231.448 173.025 231 172.473 231C171.921 231 171.473 231.448 171.473 232C171.473 232.552 171.921 233 172.473 233Z" fill="#4B3B56"/>
<path d="M153.42 266C153.973 266 154.42 265.552 154.42 265C154.42 264.448 153.973 264 153.42 264C152.868 264 152.42 264.448 152.42 265C152.42 265.552 152.868 266 153.42 266Z" fill="#4B3B56"/>
<path d="M172.473 299C173.025 299 173.473 298.552 173.473 298C173.473 297.448 173.025 297 172.473 297C171.921 297 171.473 297.448 171.473 298C171.473 298.552 171.921 299 172.473 299Z" fill="#4B3B56"/>
<path d="M191.526 2C192.078 2 192.526 1.55228 192.526 1C192.526 0.447715 192.078 0 191.526 0C190.973 0 190.526 0.447715 190.526 1C190.526 1.55228 190.973 2 191.526 2Z" fill="#4B3B56"/>
<path d="M210.578 35C211.13 35 211.578 34.5523 211.578 34C211.578 33.4477 211.13 33 210.578 33C210.026 33 209.578 33.4477 209.578 34C209.578 34.5523 210.026 35 210.578 35Z" fill="#4B3B56"/>
<path d="M191.526 68C192.078 68 192.526 67.5523 192.526 67C192.526 66.4477 192.078 66 191.526 66C190.973 66 190.526 66.4477 190.526 67C190.526 67.5523 190.973 68 191.526 68Z" fill="#4B3B56"/>
<path d="M210.578 101C211.13 101 211.578 100.552 211.578 100C211.578 99.4477 211.13 99 210.578 99C210.026 99 209.578 99.4477 209.578 100C209.578 100.552 210.026 101 210.578 101Z" fill="#4B3B56"/>
<path d="M191.526 134C192.078 134 192.526 133.552 192.526 133C192.526 132.448 192.078 132 191.526 132C190.973 132 190.526 132.448 190.526 133C190.526 133.552 190.973 134 191.526 134Z" fill="#4B3B56"/>
<path d="M210.578 167C211.13 167 211.578 166.552 211.578 166C211.578 165.448 211.13 165 210.578 165C210.026 165 209.578 165.448 209.578 166C209.578 166.552 210.026 167 210.578 167Z" fill="#4B3B56"/>
<path d="M191.526 200C192.078 200 192.526 199.552 192.526 199C192.526 198.448 192.078 198 191.526 198C190.973 198 190.526 198.448 190.526 199C190.526 199.552 190.973 200 191.526 200Z" fill="#4B3B56"/>
<path d="M210.578 233C211.13 233 211.578 232.552 211.578 232C211.578 231.448 211.13 231 210.578 231C210.026 231 209.578 231.448 209.578 232C209.578 232.552 210.026 233 210.578 233Z" fill="#4B3B56"/>
<path d="M191.526 266C192.078 266 192.526 265.552 192.526 265C192.526 264.448 192.078 264 191.526 264C190.973 264 190.526 264.448 190.526 265C190.526 265.552 190.973 266 191.526 266Z" fill="#4B3B56"/>
<path d="M210.578 299C211.13 299 211.578 298.552 211.578 298C211.578 297.448 211.13 297 210.578 297C210.026 297 209.578 297.448 209.578 298C209.578 298.552 210.026 299 210.578 299Z" fill="#4B3B56"/>
<path d="M229.631 2C230.183 2 230.631 1.55228 230.631 1C230.631 0.447715 230.183 0 229.631 0C229.078 0 228.631 0.447715 228.631 1C228.631 1.55228 229.078 2 229.631 2Z" fill="#4B3B56"/>
<path d="M248.683 35C249.236 35 249.683 34.5523 249.683 34C249.683 33.4477 249.236 33 248.683 33C248.131 33 247.683 33.4477 247.683 34C247.683 34.5523 248.131 35 248.683 35Z" fill="#4B3B56"/>
<path d="M229.631 68C230.183 68 230.631 67.5523 230.631 67C230.631 66.4477 230.183 66 229.631 66C229.078 66 228.631 66.4477 228.631 67C228.631 67.5523 229.078 68 229.631 68Z" fill="#4B3B56"/>
<path d="M248.683 101C249.236 101 249.683 100.552 249.683 100C249.683 99.4477 249.236 99 248.683 99C248.131 99 247.683 99.4477 247.683 100C247.683 100.552 248.131 101 248.683 101Z" fill="#4B3B56"/>
<path d="M229.631 134C230.183 134 230.631 133.552 230.631 133C230.631 132.448 230.183 132 229.631 132C229.078 132 228.631 132.448 228.631 133C228.631 133.552 229.078 134 229.631 134Z" fill="#4B3B56"/>
<path d="M248.683 167C249.236 167 249.683 166.552 249.683 166C249.683 165.448 249.236 165 248.683 165C248.131 165 247.683 165.448 247.683 166C247.683 166.552 248.131 167 248.683 167Z" fill="#4B3B56"/>
<path d="M229.631 200C230.183 200 230.631 199.552 230.631 199C230.631 198.448 230.183 198 229.631 198C229.078 198 228.631 198.448 228.631 199C228.631 199.552 229.078 200 229.631 200Z" fill="#4B3B56"/>
<path d="M248.683 233C249.236 233 249.683 232.552 249.683 232C249.683 231.448 249.236 231 248.683 231C248.131 231 247.683 231.448 247.683 232C247.683 232.552 248.131 233 248.683 233Z" fill="#4B3B56"/>
<path d="M229.631 266C230.183 266 230.631 265.552 230.631 265C230.631 264.448 230.183 264 229.631 264C229.078 264 228.631 264.448 228.631 265C228.631 265.552 229.078 266 229.631 266Z" fill="#4B3B56"/>
<path d="M248.683 299C249.236 299 249.683 298.552 249.683 298C249.683 297.448 249.236 297 248.683 297C248.131 297 247.683 297.448 247.683 298C247.683 298.552 248.131 299 248.683 299Z" fill="#4B3B56"/>
<path d="M267.736 2C268.288 2 268.736 1.55228 268.736 1C268.736 0.447715 268.288 0 267.736 0C267.184 0 266.736 0.447715 266.736 1C266.736 1.55228 267.184 2 267.736 2Z" fill="#4B3B56"/>
<path d="M286.788 35C287.341 35 287.788 34.5523 287.788 34C287.788 33.4477 287.341 33 286.788 33C286.236 33 285.788 33.4477 285.788 34C285.788 34.5523 286.236 35 286.788 35Z" fill="#4B3B56"/>
<path d="M267.736 68C268.288 68 268.736 67.5523 268.736 67C268.736 66.4477 268.288 66 267.736 66C267.184 66 266.736 66.4477 266.736 67C266.736 67.5523 267.184 68 267.736 68Z" fill="#4B3B56"/>
<path d="M286.788 101C287.341 101 287.788 100.552 287.788 100C287.788 99.4477 287.341 99 286.788 99C286.236 99 285.788 99.4477 285.788 100C285.788 100.552 286.236 101 286.788 101Z" fill="#4B3B56"/>
<path d="M267.736 134C268.288 134 268.736 133.552 268.736 133C268.736 132.448 268.288 132 267.736 132C267.184 132 266.736 132.448 266.736 133C266.736 133.552 267.184 134 267.736 134Z" fill="#4B3B56"/>
<path d="M286.788 167C287.341 167 287.788 166.552 287.788 166C287.788 165.448 287.341 165 286.788 165C286.236 165 285.788 165.448 285.788 166C285.788 166.552 286.236 167 286.788 167Z" fill="#4B3B56"/>
<path d="M267.736 200C268.288 200 268.736 199.552 268.736 199C268.736 198.448 268.288 198 267.736 198C267.184 198 266.736 198.448 266.736 199C266.736 199.552 267.184 200 267.736 200Z" fill="#4B3B56"/>
<path d="M286.788 233C287.341 233 287.788 232.552 287.788 232C287.788 231.448 287.341 231 286.788 231C286.236 231 285.788 231.448 285.788 232C285.788 232.552 286.236 233 286.788 233Z" fill="#4B3B56"/>
<path d="M267.736 266C268.288 266 268.736 265.552 268.736 265C268.736 264.448 268.288 264 267.736 264C267.184 264 266.736 264.448 266.736 265C266.736 265.552 267.184 266 267.736 266Z" fill="#4B3B56"/>
<path d="M286.788 299C287.341 299 287.788 298.552 287.788 298C287.788 297.448 287.341 297 286.788 297C286.236 297 285.788 297.448 285.788 298C285.788 298.552 286.236 299 286.788 299Z" fill="#4B3B56"/>
<path d="M305.841 2C306.393 2 306.841 1.55228 306.841 1C306.841 0.447715 306.393 0 305.841 0C305.289 0 304.841 0.447715 304.841 1C304.841 1.55228 305.289 2 305.841 2Z" fill="#4B3B56"/>
<path d="M324.894 35C325.446 35 325.894 34.5523 325.894 34C325.894 33.4477 325.446 33 324.894 33C324.341 33 323.894 33.4477 323.894 34C323.894 34.5523 324.341 35 324.894 35Z" fill="#4B3B56"/>
<path d="M305.841 68C306.393 68 306.841 67.5523 306.841 67C306.841 66.4477 306.393 66 305.841 66C305.289 66 304.841 66.4477 304.841 67C304.841 67.5523 305.289 68 305.841 68Z" fill="#4B3B56"/>
<path d="M324.894 101C325.446 101 325.894 100.552 325.894 100C325.894 99.4477 325.446 99 324.894 99C324.341 99 323.894 99.4477 323.894 100C323.894 100.552 324.341 101 324.894 101Z" fill="#4B3B56"/>
<path d="M305.841 134C306.393 134 306.841 133.552 306.841 133C306.841 132.448 306.393 132 305.841 132C305.289 132 304.841 132.448 304.841 133C304.841 133.552 305.289 134 305.841 134Z" fill="#4B3B56"/>
<path d="M324.894 167C325.446 167 325.894 166.552 325.894 166C325.894 165.448 325.446 165 324.894 165C324.341 165 323.894 165.448 323.894 166C323.894 166.552 324.341 167 324.894 167Z" fill="#4B3B56"/>
<path d="M305.841 200C306.393 200 306.841 199.552 306.841 199C306.841 198.448 306.393 198 305.841 198C305.289 198 304.841 198.448 304.841 199C304.841 199.552 305.289 200 305.841 200Z" fill="#4B3B56"/>
<path d="M324.894 233C325.446 233 325.894 232.552 325.894 232C325.894 231.448 325.446 231 324.894 231C324.341 231 323.894 231.448 323.894 232C323.894 232.552 324.341 233 324.894 233Z" fill="#4B3B56"/>
<path d="M305.841 266C306.393 266 306.841 265.552 306.841 265C306.841 264.448 306.393 264 305.841 264C305.289 264 304.841 264.448 304.841 265C304.841 265.552 305.289 266 305.841 266Z" fill="#4B3B56"/>
<path d="M324.894 299C325.446 299 325.894 298.552 325.894 298C325.894 297.448 325.446 297 324.894 297C324.341 297 323.894 297.448 323.894 298C323.894 298.552 324.341 299 324.894 299Z" fill="#4B3B56"/>
<path d="M343.946 2C344.498 2 344.946 1.55228 344.946 1C344.946 0.447715 344.498 0 343.946 0C343.394 0 342.946 0.447715 342.946 1C342.946 1.55228 343.394 2 343.946 2Z" fill="#4B3B56"/>
<path d="M362.999 35C363.551 35 363.999 34.5523 363.999 34C363.999 33.4477 363.551 33 362.999 33C362.446 33 361.999 33.4477 361.999 34C361.999 34.5523 362.446 35 362.999 35Z" fill="#4B3B56"/>
<path d="M343.946 68C344.498 68 344.946 67.5523 344.946 67C344.946 66.4477 344.498 66 343.946 66C343.394 66 342.946 66.4477 342.946 67C342.946 67.5523 343.394 68 343.946 68Z" fill="#4B3B56"/>
<path d="M362.999 101C363.551 101 363.999 100.552 363.999 100C363.999 99.4477 363.551 99 362.999 99C362.446 99 361.999 99.4477 361.999 100C361.999 100.552 362.446 101 362.999 101Z" fill="#4B3B56"/>
<path d="M343.946 134C344.498 134 344.946 133.552 344.946 133C344.946 132.448 344.498 132 343.946 132C343.394 132 342.946 132.448 342.946 133C342.946 133.552 343.394 134 343.946 134Z" fill="#4B3B56"/>
<path d="M362.999 167C363.551 167 363.999 166.552 363.999 166C363.999 165.448 363.551 165 362.999 165C362.446 165 361.999 165.448 361.999 166C361.999 166.552 362.446 167 362.999 167Z" fill="#4B3B56"/>
<path d="M343.946 200C344.498 200 344.946 199.552 344.946 199C344.946 198.448 344.498 198 343.946 198C343.394 198 342.946 198.448 342.946 199C342.946 199.552 343.394 200 343.946 200Z" fill="#4B3B56"/>
<path d="M362.999 233C363.551 233 363.999 232.552 363.999 232C363.999 231.448 363.551 231 362.999 231C362.446 231 361.999 231.448 361.999 232C361.999 232.552 362.446 233 362.999 233Z" fill="#4B3B56"/>
<path d="M343.946 266C344.498 266 344.946 265.552 344.946 265C344.946 264.448 344.498 264 343.946 264C343.394 264 342.946 264.448 342.946 265C342.946 265.552 343.394 266 343.946 266Z" fill="#4B3B56"/>
<path d="M362.999 299C363.551 299 363.999 298.552 363.999 298C363.999 297.448 363.551 297 362.999 297C362.446 297 361.999 297.448 361.999 298C361.999 298.552 362.446 299 362.999 299Z" fill="#4B3B56"/>
<mask id="mask0" mask-type="alpha" maskUnits="userSpaceOnUse" x="246" y="6" width="146" height="258">
<rect x="246" y="6" width="145.658" height="258" fill="#C4C4C4"/>
</mask>
<g mask="url(#mask0)">
<circle cx="395.144" cy="135.775" r="82.5135" fill="#9C64FF" fill-opacity="0.49"/>
</g>
<circle r="25" transform="matrix(-1 0 0 1 386.631 213)" fill="#FF9900" fill-opacity="0.44"/>
</svg>
