<svg width="123" height="123" viewBox="0 0 123 123" fill="none" xmlns="http://www.w3.org/2000/svg">
<g>
<path d="M40.7321 118.142L40.7291 118.146C40.7244 118.15 40.7197 118.154 40.7133 118.158C40.4156 118.492 40.0401 118.756 39.6373 118.979C39.514 119.05 39.3954 119.1 39.2686 119.156C38.9542 119.294 38.6234 119.396 38.2723 119.46C38.1437 119.486 38.0231 119.521 37.8895 119.534C37.8211 119.542 37.7617 119.566 37.6947 119.571C37.2835 119.596 36.879 119.562 36.493 119.48C36.4525 119.475 36.4184 119.451 36.3775 119.442C35.951 119.341 35.5629 119.17 35.2007 118.955C35.1503 118.925 35.0873 118.92 35.0367 118.888L12.1613 103.778C10.4098 102.622 10.1121 100.413 11.5014 98.8414C12.8894 97.2734 15.4351 96.9402 17.1904 98.0993L29.5243 106.244C26.0117 92.5924 27.2853 78.6024 27.3511 77.941C29.9008 34.9162 65.1866 0.428407 106.009 1.05999C108.031 1.09163 109.624 2.40546 109.829 4.09842C109.85 4.27951 109.857 4.46245 109.848 4.65066C109.732 6.59903 107.829 8.14943 105.594 8.11753C69.2323 7.55419 37.7622 38.9331 35.4341 78.1787C35.4143 78.3596 34.0911 92.815 37.7765 105.83L44.7087 90.1279C45.523 88.2877 47.8713 87.3232 49.9544 87.9678C52.0408 88.6104 53.0618 90.6225 52.26 92.4663L41.333 117.218C41.1811 117.554 40.9775 117.863 40.7321 118.142Z" fill="#3C7EFF"/>
</g>
<defs>
</svg>
