<svg width="57" height="62" viewBox="0 0 57 62" fill="none" xmlns="http://www.w3.org/2000/svg">
<path d="M10.0233 45.6782V21.3593C10.0233 17.931 13.9037 15.7878 17.0175 17.5008L19.2211 18.7162L19.2728 18.7477L19.4669 18.86L31 25.22V16.8403C31.0001 16.0269 30.776 15.2278 30.3504 14.5233C29.9248 13.8189 29.3126 13.2338 28.5753 12.8269L10.0233 2.59155L6.30512 0.54269C3.5018 -1.00069 0 0.931344 0 4.02485V57.9759C0 61.0672 3.50298 63.0003 6.3063 61.4581L10.0233 59.4081L20.0407 53.8816L12.4503 49.6985C11.7116 49.2912 11.0983 48.7052 10.6723 47.9994C10.2462 47.2936 10.0223 46.493 10.0233 45.6782Z" fill="currentColor"/>
<path d="M51.3178 25.5079L41.4178 20C41.4178 20.2128 41.4235 20.4322 41.4235 20.6505C41.4327 23.458 41.4554 26.2655 41.4914 29.073C41.499 29.6419 41.3491 30.2025 41.0569 30.6969C40.7647 31.1913 40.341 31.6017 39.8293 31.8857C37.7589 33.0346 35.6885 34.1868 33.6181 35.3423C32.8972 35.743 32.0796 35.9539 31.2474 35.9539C30.4152 35.9539 29.5976 35.743 28.8768 35.3423L21 30.9559V39.7286C21.0001 40.5309 21.2194 41.3191 21.6357 42.0139C22.052 42.7088 22.6507 43.2859 23.3718 43.6872L28.0475 46.2893C28.8837 46.7549 29.8325 47 30.7983 47C31.7641 47 32.7128 46.7549 33.549 46.2893L51.3178 36.404L54.9434 34.3914C57.6855 32.8654 57.6855 29.052 54.9434 27.5271L51.3178 25.5079Z" fill="currentColor"/>
</svg>
