<svg width="1233" height="165" viewBox="0 0 1233 165" fill="none" xmlns="http://www.w3.org/2000/svg">
<path opacity="0.4" d="M97 69C130.333 86 216.8 120.2 296 121" stroke="#40304D" stroke-width="4" stroke-dasharray="15 15"/>
<path opacity="0.4" d="M648 69C682.171 86 770.81 120.2 852 121" stroke="#40304D" stroke-width="4" stroke-dasharray="15 15"/>
<path opacity="0.4" d="M369 117.467C406.312 114.658 497.954 98.9142 566.023 58.4186" stroke="#40304D" stroke-width="4" stroke-dasharray="15 15"/>
<path opacity="0.4" d="M952 117.467C989.312 114.658 1080.95 98.9142 1149.02 58.4186" stroke="#40304D" stroke-width="4" stroke-dasharray="15 15"/>
<g clip-path="url(#clip0)">
<path d="M4.33594 4.81836L-2.60156 25.6309V101.943H25.1484V115.818H39.0234L52.8984 101.943H73.7109L101.461 72.3896V4.81836H4.33594ZM94.5234 67.2559L75.0984 88.0684H50.4981L35.5547 98.9394V88.0684H11.2734V11.7559H94.5234V67.2559Z" fill="#9C64FF"/>
<path d="M52.8984 32.5684H45.9609V60.3184H52.8984V32.5684Z" fill="#9C64FF"/>
<path d="M73.7109 32.5684H66.7734V60.3184H73.7109V32.5684Z" fill="#9C64FF"/>
</g>
<path d="M669 26.0831C664.872 27.8938 660.474 29.0939 655.888 29.6767C660.606 26.8601 664.206 22.4339 665.899 17.099C661.501 19.7214 656.644 21.5737 651.469 22.6074C647.293 18.1604 641.34 15.4062 634.847 15.4062C622.248 15.4062 612.106 25.6321 612.106 38.1682C612.106 39.9719 612.258 41.7063 612.633 43.3574C593.714 42.4347 576.974 33.3674 565.728 19.5549C563.765 22.9612 562.613 26.8601 562.613 31.0573C562.613 38.9383 566.672 45.9243 572.721 49.9689C569.065 49.8995 565.479 48.8381 562.44 47.1661C562.44 47.2355 562.44 47.3257 562.44 47.4159C562.44 58.4742 570.328 67.6595 580.672 69.7754C578.819 70.2819 576.801 70.5247 574.705 70.5247C573.249 70.5247 571.778 70.4414 570.397 70.1362C573.346 79.148 581.712 85.7733 591.661 85.9884C583.919 92.0448 574.088 95.6939 563.446 95.6939C561.58 95.6939 559.79 95.6107 558 95.3818C568.08 101.882 580.027 105.594 592.91 105.594C634.784 105.594 657.678 70.9062 657.678 40.8391C657.678 39.8332 657.643 38.8619 657.595 37.8976C662.111 34.6925 665.906 30.6896 669 26.0831Z" fill="#1DA1F2"/>
<path d="M892.8 53.8645L892.807 53.8635C903.576 52.4219 914.802 54.5358 924.229 59.9128L924.241 59.9196C934.877 65.8889 943.204 75.8619 947.127 87.4059L947.13 87.4149C950.782 97.9978 950.748 109.822 947.035 120.384L947.032 120.393C942.919 132.269 934.134 142.441 923.007 148.285L922.999 148.289L922.991 148.294C908.404 156.128 889.865 156.007 875.382 147.983L875.375 147.979L875.368 147.976C865.05 142.363 856.8 133.024 852.553 122.078L852.55 122.068C848.359 111.424 847.996 99.3283 851.49 88.4366L851.492 88.4302C854.69 78.3437 861.211 69.3551 869.764 63.1107L869.767 63.1083C876.51 58.1649 884.514 54.9422 892.8 53.8645ZM891.825 54.885C881.389 56.5039 871.544 61.5965 864.19 69.1722C855.356 78.1221 850.143 90.5517 850.102 103.158C849.923 114.169 853.6 125.178 860.337 133.885C867.397 143.123 877.796 149.745 889.192 152.138C900.35 154.539 912.324 152.948 922.438 147.61C933.385 141.918 942.026 131.997 946.148 120.364C950.29 108.833 949.947 95.761 945.128 84.4825C940.553 73.6195 931.963 64.5298 921.371 59.3513C912.29 54.8449 901.814 53.311 891.825 54.885Z" fill="white" stroke="white" stroke-width="4"/>
<path d="M874.036 77.5343C875.571 70.1228 880.595 63.4606 887.356 60.0421C886.181 61.2354 884.754 62.1551 883.673 63.4472C879.223 68.252 877.208 75.2014 878.438 81.6393C879.99 91.4015 889.155 99.3289 899.084 99.2212C906.791 99.5666 914.346 95.1297 918.106 88.445C926.181 88.7187 934.032 92.8865 938.613 99.5711C940.972 103.066 942.816 107.158 942.942 111.42C941.453 105.767 937.688 100.742 932.561 97.9067C927.599 95.1162 921.511 94.4029 916.055 96.0538C909.245 98.0099 903.619 103.586 901.609 110.383C899.958 115.843 900.667 121.864 903.256 126.915C899.653 133.151 893.148 137.615 886.082 138.948C880.654 140.087 874.943 139.208 869.918 136.929C874.445 138.248 879.357 138.477 883.848 136.879C889.882 134.879 894.871 130.033 897.065 124.062C899.501 117.557 898.572 109.863 894.476 104.223C891.412 99.8268 886.603 96.7178 881.363 95.6276C879.707 95.3315 878.025 95.197 876.347 95.0444C873.686 89.6698 872.704 83.4203 874.036 77.5343Z" fill="white"/>
<circle cx="899.5" cy="104.5" r="53.5" stroke="white" stroke-width="4"/>
<path d="M324.468 92.4219C321.309 92.4219 318.814 95.1882 318.814 98.563C318.814 101.938 321.364 104.704 324.468 104.704C327.628 104.704 330.122 101.938 330.122 98.563C330.177 95.1882 327.628 92.4219 324.468 92.4219ZM344.7 92.4219C341.54 92.4219 339.046 95.1882 339.046 98.563C339.046 101.938 341.596 104.704 344.7 104.704C347.859 104.704 350.353 101.938 350.353 98.563C350.353 95.1882 347.859 92.4219 344.7 92.4219Z" fill="#7289DA"/>
<path d="M371.637 46H297.363C291.099 46 286 51.09 286 57.3971V132.198C286 138.505 291.099 143.595 297.363 143.595H360.219L357.281 133.36L364.376 139.943L371.083 146.14L383 156.652V57.3971C383 51.09 377.901 46 371.637 46ZM350.242 118.256C350.242 118.256 348.246 115.877 346.583 113.774C353.845 111.727 356.616 107.19 356.616 107.19C354.343 108.684 352.182 109.735 350.242 110.455C347.47 111.617 344.81 112.391 342.205 112.834C336.883 113.83 332.006 113.553 327.849 112.778C324.689 112.17 321.973 111.285 319.701 110.399C318.426 109.901 317.04 109.293 315.654 108.518C315.488 108.408 315.322 108.352 315.155 108.242C315.045 108.186 314.989 108.131 314.934 108.076C313.936 107.522 313.382 107.135 313.382 107.135C313.382 107.135 316.042 111.561 323.082 113.664C321.419 115.766 319.368 118.256 319.368 118.256C307.118 117.868 302.462 109.846 302.462 109.846C302.462 92.0312 310.444 77.5911 310.444 77.5911C318.426 71.6159 326.019 71.7819 326.019 71.7819L326.574 72.4458C316.597 75.3227 311.996 79.6935 311.996 79.6935C311.996 79.6935 313.215 79.0296 315.266 78.089C321.197 75.4887 325.909 74.7695 327.849 74.6035C328.181 74.5482 328.458 74.4929 328.791 74.4929C332.172 74.0502 335.997 73.9396 339.987 74.3822C345.253 74.9908 350.907 76.5399 356.671 79.6935C356.671 79.6935 352.293 75.544 342.87 72.6671L343.646 71.7819C343.646 71.7819 351.239 71.6159 359.221 77.5911C359.221 77.5911 367.203 92.0312 367.203 109.846C367.203 109.846 362.491 117.868 350.242 118.256Z" fill="#7289DA"/>
<path opacity="0.88" d="M1140.44 130.14C1139.47 130.14 1138.59 129.973 1137.8 129.64C1137.03 129.307 1136.42 128.827 1135.96 128.2C1135.51 127.573 1135.28 126.833 1135.26 125.98H1138.26C1138.3 126.567 1138.5 127.033 1138.86 127.38C1139.24 127.727 1139.74 127.9 1140.38 127.9C1141.04 127.9 1141.55 127.74 1141.92 127.42C1142.3 127.1 1142.48 126.673 1142.48 126.14C1142.48 125.727 1142.36 125.387 1142.1 125.12C1141.85 124.853 1141.53 124.647 1141.14 124.5C1140.77 124.34 1140.25 124.167 1139.58 123.98C1138.68 123.713 1137.94 123.453 1137.36 123.2C1136.8 122.933 1136.32 122.54 1135.9 122.02C1135.5 121.487 1135.3 120.78 1135.3 119.9C1135.3 119.073 1135.51 118.353 1135.92 117.74C1136.34 117.127 1136.92 116.66 1137.66 116.34C1138.41 116.007 1139.26 115.84 1140.22 115.84C1141.66 115.84 1142.83 116.193 1143.72 116.9C1144.63 117.593 1145.13 118.567 1145.22 119.82H1142.14C1142.12 119.3 1141.91 118.887 1141.52 118.58C1141.15 118.26 1140.65 118.1 1140.02 118.1C1139.48 118.1 1139.04 118.247 1138.7 118.54C1138.38 118.82 1138.22 119.24 1138.22 119.8C1138.22 120.173 1138.34 120.487 1138.58 120.74C1138.84 120.98 1139.14 121.18 1139.5 121.34C1139.88 121.487 1140.4 121.66 1141.06 121.86C1141.97 122.127 1142.71 122.393 1143.28 122.66C1143.86 122.927 1144.35 123.327 1144.76 123.86C1145.18 124.393 1145.38 125.093 1145.38 125.96C1145.38 126.707 1145.19 127.4 1144.8 128.04C1144.42 128.68 1143.85 129.193 1143.1 129.58C1142.36 129.953 1141.47 130.14 1140.44 130.14ZM1151.07 121.22V126.58C1151.07 126.953 1151.16 127.227 1151.33 127.4C1151.52 127.56 1151.82 127.64 1152.25 127.64H1153.55V130H1151.79C1149.43 130 1148.25 128.853 1148.25 126.56V121.22H1146.93V118.92H1148.25V116.18H1151.07V118.92H1153.55V121.22H1151.07ZM1158.37 120.88C1158.73 120.213 1159.19 119.693 1159.77 119.32C1160.35 118.947 1161.02 118.76 1161.77 118.76V121.7H1161.03C1160.15 121.7 1159.48 121.907 1159.03 122.32C1158.59 122.733 1158.37 123.453 1158.37 124.48V130H1155.57V118.92H1158.37V120.88ZM1162.93 124.42C1162.93 123.3 1163.15 122.307 1163.59 121.44C1164.04 120.573 1164.65 119.907 1165.41 119.44C1166.18 118.973 1167.04 118.74 1167.99 118.74C1168.82 118.74 1169.54 118.907 1170.15 119.24C1170.78 119.573 1171.28 119.993 1171.65 120.5V118.92H1174.47V130H1171.65V128.38C1171.29 128.9 1170.79 129.333 1170.15 129.68C1169.52 130.013 1168.8 130.18 1167.97 130.18C1167.04 130.18 1166.18 129.94 1165.41 129.46C1164.65 128.98 1164.04 128.307 1163.59 127.44C1163.15 126.56 1162.93 125.553 1162.93 124.42ZM1171.65 124.46C1171.65 123.78 1171.52 123.2 1171.25 122.72C1170.98 122.227 1170.62 121.853 1170.17 121.6C1169.72 121.333 1169.23 121.2 1168.71 121.2C1168.19 121.2 1167.71 121.327 1167.27 121.58C1166.83 121.833 1166.47 122.207 1166.19 122.7C1165.92 123.18 1165.79 123.753 1165.79 124.42C1165.79 125.087 1165.92 125.673 1166.19 126.18C1166.47 126.673 1166.83 127.053 1167.27 127.32C1167.72 127.587 1168.2 127.72 1168.71 127.72C1169.23 127.72 1169.72 127.593 1170.17 127.34C1170.62 127.073 1170.98 126.7 1171.25 126.22C1171.52 125.727 1171.65 125.14 1171.65 124.46ZM1192.57 118.92L1189.33 130H1186.31L1184.29 122.26L1182.27 130H1179.23L1175.97 118.92H1178.81L1180.77 127.36L1182.89 118.92H1185.85L1187.93 127.34L1189.89 118.92H1192.57ZM1204.26 120.36C1204.26 121.107 1204.08 121.807 1203.72 122.46C1203.37 123.113 1202.82 123.64 1202.06 124.04C1201.31 124.44 1200.37 124.64 1199.22 124.64H1196.88V130H1194.08V116.04H1199.22C1200.3 116.04 1201.22 116.227 1201.98 116.6C1202.74 116.973 1203.31 117.487 1203.68 118.14C1204.07 118.793 1204.26 119.533 1204.26 120.36ZM1199.1 122.44C1199.86 122.44 1200.43 122.253 1200.8 121.88C1201.19 121.507 1201.38 121 1201.38 120.36C1201.38 119.693 1201.19 119.18 1200.82 118.82C1200.45 118.447 1199.87 118.26 1199.1 118.26H1196.88V122.44H1199.1ZM1211.17 130.18C1210.1 130.18 1209.14 129.947 1208.29 129.48C1207.44 129 1206.76 128.327 1206.27 127.46C1205.79 126.593 1205.55 125.593 1205.55 124.46C1205.55 123.327 1205.8 122.327 1206.29 121.46C1206.8 120.593 1207.48 119.927 1208.35 119.46C1209.22 118.98 1210.18 118.74 1211.25 118.74C1212.32 118.74 1213.28 118.98 1214.15 119.46C1215.02 119.927 1215.7 120.593 1216.19 121.46C1216.7 122.327 1216.95 123.327 1216.95 124.46C1216.95 125.593 1216.69 126.593 1216.17 127.46C1215.66 128.327 1214.97 129 1214.09 129.48C1213.22 129.947 1212.25 130.18 1211.17 130.18ZM1211.17 127.78C1211.68 127.78 1212.15 127.653 1212.59 127.4C1213.04 127.147 1213.4 126.773 1213.67 126.28C1213.94 125.773 1214.07 125.167 1214.07 124.46C1214.07 123.753 1213.94 123.153 1213.67 122.66C1213.4 122.153 1213.05 121.773 1212.61 121.52C1212.18 121.267 1211.72 121.14 1211.21 121.14C1210.42 121.14 1209.76 121.433 1209.21 122.02C1208.66 122.593 1208.39 123.407 1208.39 124.46C1208.39 125.513 1208.66 126.333 1209.19 126.92C1209.72 127.493 1210.38 127.78 1211.17 127.78ZM1221.8 115.2V130H1219V115.2H1221.8ZM1227.37 115.2V130H1224.57V115.2H1227.37Z" fill="#CA2F2C"/>
<path d="M1221.56 0H1141.44C1135.15 0 1130 5.15 1130 11.4444V91.5556C1130 97.85 1135.15 103 1141.44 103H1221.56C1227.85 103 1233 97.85 1233 91.5556V11.4444C1233 5.15 1227.85 0 1221.56 0ZM1164.33 80.1111H1152.89V40.0556H1164.33V80.1111ZM1187.22 80.1111H1175.78V22.8889H1187.22V80.1111ZM1210.11 80.1111H1198.67V57.2222H1210.11V80.1111Z" fill="#CA2F2C"/>
<defs>
<clipPath id="clip0">
<rect width="111" height="111" fill="white" transform="translate(0 2)"/>
</clipPath>
</defs>
</svg>
