<svg width="192" height="192" viewBox="0 0 192 192" fill="none" xmlns="http://www.w3.org/2000/svg">
<g clip-path="url(#socialsArrowClip)">
<path d="M47.8936 158.411L47.8916 158.417C47.8904 158.425 47.8893 158.433 47.8892 158.443C47.7321 159.004 47.707 159.602 47.745 160.201C47.7546 160.386 47.7824 160.552 47.8111 160.73C47.8804 161.172 48.0009 161.607 48.1787 162.037C48.2407 162.196 48.2867 162.354 48.3669 162.509C48.4059 162.59 48.4209 162.672 48.463 162.749C48.7245 163.218 49.0469 163.638 49.4081 164.004C49.4426 164.045 49.4925 164.065 49.5311 164.104C49.9421 164.501 50.4035 164.806 50.8937 165.052C50.9625 165.086 51.0117 165.152 51.0825 165.185L83.7601 179.653C86.2612 180.762 88.8942 179.534 89.6411 176.904C90.3849 174.277 88.9591 171.249 86.4521 170.139L68.8358 162.337C86.2873 156.584 100.742 145.342 101.422 144.805C146.838 111.731 159.851 48.7438 130.432 4.39401C128.975 2.19833 126.412 1.37412 124.41 2.34123C124.196 2.44467 123.991 2.56631 123.79 2.70806C121.735 4.20714 121.372 7.38644 122.98 9.8159C149.185 49.3188 136.898 105.932 95.4729 136.103C95.2883 136.252 80.3577 147.876 63.4827 152.99L75.8348 134.334C77.281 132.146 76.687 128.89 74.5137 127.058C72.3405 125.221 69.4141 125.516 67.9551 127.694L48.4842 157.101C48.2229 157.504 48.0273 157.945 47.8936 158.411Z" fill="url(#socialsArrowGradient)"/>
</g>
<defs>
<linearGradient id="socialsArrowGradient" x1="127.085" y1="160.485" x2="64.628" y2="31.2283" gradientUnits="userSpaceOnUse">
<stop stop-color="white"/>
<stop offset="1" stop-color="#1A151E" stop-opacity="0"/>
</linearGradient>
<clipPath id="socialsArrowClip">
<rect width="143.555" height="143.555" fill="white" transform="translate(191.713 129.256) rotate(154.21)"/>
</clipPath>
</defs>
</svg>
